<svg><symbol id="action--add-media" preserveAspectRatio="xMinYMin meet"><path d="M12.596 13.197l-1.575-1.891L8.4 14.8a.5.5 0 0 1-.8-.6l3-4a.5.5 0 0 1 .784-.02l1.922 2.307.34-.34a.5.5 0 0 1 .708 0l2 2a.5.5 0 1 1-.708.707L14 13.207l-1.646 1.647a.5.5 0 1 1-.708-.708l.95-.95zM20 17h1a1 1 0 0 1 0 2h-1v1a1 1 0 0 1-2 0v-1h-1a1 1 0 0 1 0-2h1v-1a1 1 0 0 1 2 0v1zm-5 2H6a2 2 0 0 1-2-2V8a2 2 0 0 1 2-2h12a2 2 0 0 1 2 2v6h-2V8H6v9h9v2zm1-8a1 1 0 1 1 0-2 1 1 0 0 1 0 2z"></path></symbol><symbol id="action--block" preserveAspectRatio="xMinYMin meet"><path d="M7.11 8.523a6 6 0 0 0 8.367 8.367L7.109 8.524zM8.522 7.11l8.368 8.368A6 6 0 0 0 8.524 7.11zM12 20a8 8 0 1 1 0-16 8 8 0 0 1 0 16z"></path></symbol><symbol id="action--clone" preserveAspectRatio="xMinYMin meet"><path d="M14 17h2v2a2 2 0 0 1-2 2H5a2 2 0 0 1-2-2v-9a2 2 0 0 1 2-2h2v2H5v9h9v-2zM10 3h9a2 2 0 0 1 2 2v9a2 2 0 0 1-2 2h-9a2 2 0 0 1-2-2V5a2 2 0 0 1 2-2zm0 2v9h9V5h-9z"></path></symbol><symbol id="action--colour" preserveAspectRatio="xMinYMin meet"><path d="M11.44 12.354l-2.122-2.122-4.243 4.243a2 2 0 0 1-2.828 0l7.778-7.778a1 1 0 0 1 1.414 0l1.415 1.414 2.828-2.829a2 2 0 0 1 2.828 0l.708.708a2 2 0 0 1 0 2.828l-2.829 2.828 1.414 1.415a1 1 0 0 1 0 1.414l-5.657 5.657a2 2 0 0 1-2.828 0l4.95-4.95-.707-.707-3.89 3.889a.5.5 0 1 1-.707-.707l3.89-3.89-.708-.706-4.596 4.596a.5.5 0 1 1-.707-.707l4.596-4.596zm6.363-4.95l-.707-.707-2.828 2.828.707.707 2.828-2.828zm-8.131 5.303l-3.536 3.536a.5.5 0 0 1-.707-.707L8.964 12a.5.5 0 0 1 .708.707zm4.95 1.414a.5.5 0 1 0 .706-.707l-4.242-4.242a.5.5 0 1 0-.707.707l4.242 4.242z"></path></symbol><symbol id="action--comment" preserveAspectRatio="xMinYMin meet"><path d="M5 16h3.625a2 2 0 0 1 2 2v.49l3.73-2.21a2 2 0 0 1 1.02-.28H19V7H5v9zM5 5h14a2 2 0 0 1 2 2v9a2 2 0 0 1-2 2h-3.625l-5.24 3.105a1 1 0 0 1-1.51-.86V18H4a1 1 0 0 1-1-1V7a2 2 0 0 1 2-2zm2.5 4h9a.5.5 0 1 1 0 1h-9a.5.5 0 0 1 0-1zm0 4h9a.5.5 0 1 1 0 1h-9a.5.5 0 1 1 0-1zm0-2h7a.5.5 0 1 1 0 1h-7a.5.5 0 1 1 0-1z"></path></symbol><symbol id="action--copypaste" preserveAspectRatio="xMinYMin meet"><path d="M5 10v9h9v-4H9v-5H5zm3-2h1v7h7v1h-2v1h2v2a2 2 0 0 1-2 2H5a2 2 0 0 1-2-2v-9a2 2 0 0 1 2-2h2v2h1V8zm2-5h9a2 2 0 0 1 2 2v9a2 2 0 0 1-2 2h-9a2 2 0 0 1-2-2V5a2 2 0 0 1 2-2zm0 2v9h9V5h-9zm1.5 1h6a.5.5 0 1 1 0 1h-6a.5.5 0 1 1 0-1zm0 2h6a.5.5 0 1 1 0 1h-6a.5.5 0 1 1 0-1zm0 2h6a.5.5 0 1 1 0 1h-6a.5.5 0 1 1 0-1zm0 2h6a.5.5 0 1 1 0 1h-6a.5.5 0 1 1 0-1z"></path></symbol><symbol id="action--delete" preserveAspectRatio="xMinYMin meet"><path d="M17 5.943c.552 0 1 .422 1 .942 0 .519-.448.94-1 .94V19a1 1 0 0 1-1 1H7a1 1 0 0 1-1-1V7.826c-.552 0-1-.422-1-.941 0-.52.448-.942 1-.942h2c0-1.038.896-.94 2-.94h3c1.104 0 2-.098 2 .94h2zM15 18V8.003H8V18h7zM10 7v1h3V7h-3zm-.5 2c.275 0 .5.225.5.5v7c0 .275-.225.5-.5.5a.501.501 0 0 1-.5-.5v-7c0-.275.225-.5.5-.5zm2 0c.275 0 .5.225.5.5v7c0 .275-.225.5-.5.5a.501.501 0 0 1-.5-.5v-7c0-.275.225-.5.5-.5zm2 0c.275 0 .5.225.5.5v7c0 .275-.225.5-.5.5a.501.501 0 0 1-.5-.5v-7c0-.275.225-.5.5-.5z"></path></symbol><symbol id="action--download" preserveAspectRatio="xMinYMin meet"><path d="M4 19a1 1 0 0 1 1-1h14a1 1 0 0 1 0 2H5a1 1 0 0 1-1-1m9-14l-.002 8.173 3.293-3.293a1 1 0 0 1 1.414 1.414L11.998 17l-5.707-5.706a.997.997 0 0 1 0-1.414 1 1 0 0 1 1.414 0l3.293 3.293L11 5a1 1 0 0 1 2 0"></path></symbol><symbol id="action--drag" preserveAspectRatio="xMinYMin meet"><path d="M17 13a1.414 1.414 0 0 1 2 0l-6 6-.293-.293a1 1 0 0 1 0-1.414L17 13zm.293-7.293a1 1 0 0 1 1.414 0L19 6 6 19l-.293-.293a1 1 0 0 1 0-1.414L17.293 5.707z"></path></symbol><symbol id="action--edit" preserveAspectRatio="xMinYMin meet"><path d="M20.051 7.384a1.325 1.325 0 0 1 0 1.878l-8.8 8.8c-.26.259-.643.494-1.053.664-.41.17-.847.275-1.214.275H6a1 1 0 0 1-1-1v-2.984c0-.367.105-.806.275-1.216.17-.408.405-.792.664-1.052l8.8-8.8a1.325 1.325 0 0 1 1.878.001l3.434 3.434zm-12.6 6.359l1.09 1.09 6.198-6.456-1.09-1.091-6.198 6.457zm-.68 3.487h2.213c.068 0 .268-.029.554-.148 0 0-2.619-2.619-2.627-2.6a1.63 1.63 0 0 0-.14.535v2.213zm3.487-.68l6.252-6.403-1.09-1.09-6.253 6.403 1.091 1.09zm4.15-9.944l2.808 2.808 1.143-1.145-2.807-2.808-1.144 1.145z"></path></symbol><symbol id="action--email-filled" preserveAspectRatio="xMinYMin meet"><path d="M19.557 6.745a622.557 622.557 0 0 0-6.932 5.444 1 1 0 0 1-1.223.002A575.919 575.919 0 0 0 4.45 6.735 1.996 1.996 0 0 1 6 6h12c.63 0 1.19.29 1.557.745zM20 8v9a2 2 0 0 1-2 2H6a2 2 0 0 1-2-2V8l7.4 5.55a1 1 0 0 0 1.2 0L20 8z"></path></symbol><symbol id="action--email" preserveAspectRatio="xMinYMin meet"><path d="M18 8.025V8H6v.025l5.402 4.166a1 1 0 0 0 1.223-.002L18 8.025zm0 1.339l-5.374 4.163a1 1 0 0 1-1.223.001L6 9.361V17h12V9.364zM6 6h12a2 2 0 0 1 2 2v9a2 2 0 0 1-2 2H6a2 2 0 0 1-2-2V8a2 2 0 0 1 2-2z"></path></symbol><symbol id="action--exchange" preserveAspectRatio="xMinYMin meet"><path d="M6.707 11.707L3 8l3.707-3.707a.997.997 0 0 1 1.414 0 .999.999 0 0 1 0 1.414L6.876 7H19a1 1 0 0 1 0 2H6.876l1.245 1.293a.999.999 0 1 1-1.414 1.414zm10.586.586L21 16l-3.707 3.707a.997.997 0 0 1-1.414 0 .999.999 0 0 1 0-1.414L17.124 17H5a1 1 0 0 1 0-2h12.124l-1.245-1.293a.999.999 0 1 1 1.414-1.414z"></path></symbol><symbol id="action--filter" preserveAspectRatio="xMinYMin meet"><path d="M12.17 17a3.001 3.001 0 0 1 5.66 0H19a1 1 0 0 1 0 2h-1.17a3.001 3.001 0 0 1-5.66 0H5a1 1 0 0 1 0-2h7.17zm-2.34-6H19a1 1 0 0 1 0 2H9.83a3.001 3.001 0 1 1 0-2zm4.34-6a3.001 3.001 0 1 1 0 2H5a1 1 0 1 1 0-2h9.17zM15 19a1 1 0 1 0 0-2 1 1 0 0 0 0 2zm-8-6a1 1 0 1 0 0-2 1 1 0 0 0 0 2zm10-6a1 1 0 1 0 0-2 1 1 0 0 0 0 2z"></path></symbol><symbol id="action--funnel" preserveAspectRatio="xMinYMin meet"><path d="M10 20a1 1 0 0 1-1-1v-5L4.586 9.586A2 2 0 0 1 4 8.172V6a1 1 0 0 1 1-1h14a1 1 0 0 1 1 1v2a1 1 0 0 1-1 1H9.5a.5.5 0 0 1 0-1h8.586V7H6v1l4.414 4.414A2 2 0 0 1 11 13.828V19a1 1 0 0 1-1 1zm4-1a1 1 0 0 1-1-1v-4.172a2 2 0 0 1 .586-1.414L16 10h3l-4 4v4a1 1 0 0 1-1 1z"></path></symbol><symbol id="action--launch" preserveAspectRatio="xMinYMin meet"><path d="M7 14.183l-4.275-1.221c-.898-.257-.985-1.496-.131-1.876l18-8c.83-.37 1.683.472 1.325 1.308l-6 14a1 1 0 0 1-1.544.387l-3.159-2.527-2.368 3.79A1 1 0 0 1 7 19.513v-5.331zM17 8l-4.689 6.569 2.288 1.83 4.478-10.45-13.154 5.846 2.223.635L17 8z"></path></symbol><symbol id="action--link-broken" preserveAspectRatio="xMinYMin meet"><path d="M10.485 18.763a4 4 0 0 1-5.657-5.656l.708-.708a1 1 0 1 1 1.414 1.415l-.707.707a2 2 0 1 0 2.828 2.828l3.536-3.535a1 1 0 0 1 1.414 1.414l-3.536 3.535zm2.122-13.435a4 4 0 0 1 5.656 5.657l-.707.707a1 1 0 0 1-1.414-1.414l.707-.707a2 2 0 1 0-2.828-2.828l-3.536 3.535a1 1 0 0 1-1.414-1.414l3.536-3.536zm7.179 14.165L17 16.707l.707-.707 2.786 2.786a.5.5 0 0 1-.707.707zM17 14h3.5a.5.5 0 1 1 0 1H17v-1zm-1 3v3.5a.5.5 0 1 1-1 0V17h1zm-9-7H3.5a.5.5 0 0 1 0-1H7v1zm1-3V3.5a.5.5 0 0 1 1 0V7H8zM4.06 4.354l2.786 2.785-.707.707-2.785-2.785a.5.5 0 1 1 .707-.707z"></path></symbol><symbol id="action--link" preserveAspectRatio="xMinYMin meet"><path d="M11.44 18.718a4 4 0 1 1-5.658-5.657l.708-.707a1 1 0 1 1 1.414 1.414l-.707.707a2 2 0 0 0 2.828 2.828l3.536-3.535a1 1 0 0 0 0-1.414l-.707-.708a1 1 0 0 1 1.414-1.414l1.06 1.06a2.5 2.5 0 0 1 0 3.536l-3.889 3.89zm2.12-13.436a4 4 0 1 1 5.658 5.657l-.708.707a1 1 0 1 1-1.414-1.414l.707-.707a2 2 0 0 0-2.828-2.828l-3.536 3.535a1 1 0 0 0 0 1.414l.707.708a1 1 0 0 1-1.414 1.414l-1.06-1.06a2.5 2.5 0 0 1 0-3.536l3.889-3.89z"></path></symbol><symbol id="action--location" preserveAspectRatio="xMinYMin meet"><path d="M13.315 20.192a2 2 0 0 1-2.63 0C6.927 16.912 5 13.867 5 11a7 7 0 1 1 14 0c0 2.867-1.927 5.911-5.685 9.192zM17 11a5 5 0 0 0-10 0c0 2.165 1.635 4.747 5 7.686 3.365-2.939 5-5.52 5-7.686zm-5 2a2 2 0 1 1 0-4 2 2 0 0 1 0 4zm0-1a1 1 0 1 0 0-2 1 1 0 0 0 0 2z"></path></symbol><symbol id="action--lock-closed" preserveAspectRatio="xMinYMin meet"><path d="M11.37 14.777a1 1 0 1 1 1.259 0L13 17h-2l.37-2.223zM9 9h6V8a2 2 0 0 0-2-2h-2a2 2 0 0 0-2 2v1zm8 0a2 2 0 0 1 2 2v8a2 2 0 0 1-2 2H7a2 2 0 0 1-2-2v-8a2 2 0 0 1 2-2V8a4 4 0 0 1 4-4h2a4 4 0 0 1 4 4v1zM7 11v8h10v-8H7z"></path></symbol><symbol id="action--lock-open" preserveAspectRatio="xMinYMin meet"><path d="M15 9V6a2 2 0 0 0-2-2h-2a2 2 0 0 0-2 2v1a1 1 0 1 1-2 0V6a4 4 0 0 1 4-4h2a4 4 0 0 1 4 4v3a2 2 0 0 1 2 2v8a2 2 0 0 1-2 2H7a2 2 0 0 1-2-2v-8a2 2 0 0 1 2-2h8zm2 2H7v8h10v-8zm-5.63 3.777a1 1 0 1 1 1.259 0L13 17h-2l.37-2.223z"></path></symbol><symbol id="action--merge" preserveAspectRatio="xMinYMin meet"><path d="M7.127 13H3a1 1 0 1 1 0-2h4.125L4.894 8.707a.999.999 0 1 1 1.413-1.414L11.014 12l-4.706 4.707a.997.997 0 0 1-1.414 0 .999.999 0 0 1 0-1.414L7.126 13zm9.762-2H21a1 1 0 0 1 0 2h-4.113l2.235 2.293a.999.999 0 1 1-1.415 1.414L13 12l4.707-4.707a.999.999 0 1 1 1.415 1.414L16.889 11z"></path></symbol><symbol id="action--print" preserveAspectRatio="xMinYMin meet"><path d="M19 19v-7H5v7h2v-3.5c0-.3.2-.5.5-.5s.5.2.5.5V19h8v-3.5c0-.3.2-.5.5-.5s.5.2.5.5V19h2zM8 10h8V5H8v5zm11 0c1.1 0 2 .9 2 2v7c0 1.1-.9 2-2 2H5c-1.1 0-2-.9-2-2v-7c0-1.1.9-2 2-2h1V4c0-.6.4-1 1-1h10c.6 0 1 .4 1 1v6h1zm-4.5-2c.3 0 .5.2.5.5s-.2.5-.5.5h-5c-.3 0-.5-.2-.5-.5s.2-.5.5-.5h5zm0-2c.3 0 .5.2.5.5s-.2.5-.5.5h-5c-.3 0-.5-.2-.5-.5s.2-.5.5-.5h5zm2 7a.5.5 0 1 1 0 1 .5.5 0 0 1 0-1z"></path></symbol><symbol id="action--randomise" preserveAspectRatio="xMinYMin meet"><path d="M18.707 13.293L22.414 17l-3.707 3.707a.997.997 0 0 1-1.414 0 .999.999 0 0 1 0-1.413L18.538 18h-1.707a6.034 6.034 0 0 1-4.637-2.203l1.126-1.873.081.133A4.021 4.021 0 0 0 16.831 16h1.707l-1.245-1.293a.999.999 0 1 1 1.414-1.414zM2 7a1 1 0 0 1 1-1h2.169a6.03 6.03 0 0 1 4.646 2.213L8.688 10.09l-.09-.147A4.02 4.02 0 0 0 5.169 8H3a1 1 0 0 1-1-1zm16.707-3.707L22.414 7l-3.707 3.707a.997.997 0 0 1-1.414 0 .999.999 0 0 1 0-1.414l1.245-1.292h-1.707a4.02 4.02 0 0 0-3.43 1.942l-3.087 5.143A6.031 6.031 0 0 1 5.169 18H3a1 1 0 0 1 0-2h2.169a4.021 4.021 0 0 0 3.43-1.943l3.087-5.143A6.03 6.03 0 0 1 16.831 6h1.707l-1.245-1.294a.999.999 0 1 1 1.414-1.413z"></path></symbol><symbol id="action--remove-circle-fill" preserveAspectRatio="xMinYMin meet"><path d="M12 20a8 8 0 1 1 0-16 8 8 0 0 1 0 16zm.71-8l2.12-2.121a.5.5 0 1 0-.707-.707l-2.121 2.12-2.121-2.12a.5.5 0 1 0-.707.707L11.294 12l-2.12 2.121a.5.5 0 0 0 .707.707l2.121-2.12 2.121 2.12a.5.5 0 1 0 .707-.707L12.71 12z"></path></symbol><symbol id="action--remove-circle" preserveAspectRatio="xMinYMin meet"><path d="M12 19a7 7 0 1 0 0-14 7 7 0 0 0 0 14zm.71-7l2.12-2.121a.5.5 0 1 0-.707-.707l-2.121 2.12-2.121-2.12a.5.5 0 1 0-.707.707L11.294 12l-2.12 2.121a.5.5 0 0 0 .707.707l2.121-2.12 2.121 2.12a.5.5 0 1 0 .707-.707L12.71 12zM12 20a8 8 0 1 1 0-16 8 8 0 0 1 0 16z"></path></symbol><symbol id="action--remove-square-fill" preserveAspectRatio="xMinYMin meet"><path d="M6.75 5h10.5c.966 0 1.75.784 1.75 1.75v10.5A1.75 1.75 0 0 1 17.25 19H6.75A1.75 1.75 0 0 1 5 17.25V6.75C5 5.784 5.784 5 6.75 5zm5.96 7l2.12-2.121a.5.5 0 1 0-.707-.707l-2.121 2.12-2.121-2.12a.5.5 0 1 0-.707.707L11.294 12l-2.12 2.121a.5.5 0 0 0 .707.707l2.121-2.12 2.121 2.12a.5.5 0 1 0 .707-.707L12.71 12z"></path></symbol><symbol id="action--remove-square" preserveAspectRatio="xMinYMin meet"><path d="M18 17.143a.857.857 0 0 1-.857.857H6.857A.857.857 0 0 1 6 17.143V6.857C6 6.384 6.384 6 6.857 6h10.286c.473 0 .857.384.857.857v10.286zM17.25 5H6.75A1.75 1.75 0 0 0 5 6.75v10.5c0 .967.784 1.75 1.75 1.75h10.5A1.75 1.75 0 0 0 19 17.25V6.75A1.75 1.75 0 0 0 17.25 5zm-4.541 7l2.122-2.121a.5.5 0 0 0-.707-.707l-2.122 2.12-2.121-2.12a.5.5 0 1 0-.708.707l2.122 2.12-2.122 2.123a.502.502 0 0 0 0 .707.502.502 0 0 0 .708 0l2.121-2.122 2.122 2.122a.5.5 0 0 0 .707-.707L12.709 12z"></path></symbol><symbol id="action--reply-all" preserveAspectRatio="xMinYMin meet"><path d="M10.888 11l2.233 2.293a.997.997 0 0 1 0 1.414.997.997 0 0 1-1.414 0L7 10l4.707-4.707a.999.999 0 1 1 1.414 1.414L10.888 9H14a8.002 8.002 0 0 1 7.999 7.999V18a1 1 0 1 1-2 0v-1.001c0-2.804-1.977-5.318-4.83-5.885a5.975 5.975 0 0 0-1.17-.114h-3.111zM8.12 6.707L4.914 10l3.207 3.293a.997.997 0 0 1 0 1.414.997.997 0 0 1-1.414 0L2 10l4.707-4.707A.999.999 0 1 1 8.12 6.707z"></path></symbol><symbol id="action--reply" preserveAspectRatio="xMinYMin meet"><path d="M14.56 9.152A7.987 7.987 0 0 0 13 9H7.888l2.233-2.293a.999.999 0 1 0-1.414-1.414L4 10l4.707 4.707a.997.997 0 0 0 1.414 0 .999.999 0 0 0 0-1.414L7.888 11H13a6 6 0 0 1 1.17.114c2.852.567 4.83 3.08 4.83 5.885V18a1 1 0 0 0 2 0v-1.002a8.002 8.002 0 0 0-6.44-7.847"></path></symbol><symbol id="action--save" preserveAspectRatio="xMinYMin meet"><path d="M6 4h9.172a2 2 0 0 1 1.414.586l2.828 2.828A2 2 0 0 1 20 8.828V18a2 2 0 0 1-2 2H6a2 2 0 0 1-2-2V6a2 2 0 0 1 2-2zm0 2v12h2v-5a1 1 0 0 1 1-1h6a1 1 0 0 1 1 1v5h2V9l-3-3h-1v3.5a.5.5 0 0 1-.5.5h-5a.5.5 0 0 1-.5-.5V6H6zm4 8v4h4v-4h-4zm0-8v2h2V6h-2z"></path></symbol><symbol id="action--schedule-date" preserveAspectRatio="xMinYMin meet"><path d="M12 16h2v-2h-2v2zm3 0h2v-2h-2v2zm-6 0h2v-2H9v2zm-3 0h2v-2H6v2zm6-3h2v-2h-2v2zm3 0h2v-2h-2v2zm-6 0h2v-2H9v2zm-3 0v-2h2v2H6zm0-7h11v1H6V6zM5 18h13V9H5v9zM18 4a2 2 0 0 1 2 2v12a2 2 0 0 1-2 2H5a2 2 0 0 1-2-2V6a2 2 0 0 1 2-2h13z"></path></symbol><symbol id="action--schedule-time" preserveAspectRatio="xMinYMin meet"><path d="M12 20a8 8 0 1 1 0-16 8 8 0 0 1 0 16zm0-2a6 6 0 1 0 0-12 6 6 0 0 0 0 12zm0-9.5a.5.5 0 0 1 1 0v4.309l-4.276 2.138a.5.5 0 0 1-.447-.894L12 12.19V8.5z"></path></symbol><symbol id="action--search" preserveAspectRatio="xMinYMin meet"><path d="M15.299 14.884l3.146 3.146a1 1 0 1 1-1.415 1.415l-3.301-3.302a6.5 6.5 0 1 1 1.57-1.258zM10.5 15a4.5 4.5 0 1 0 0-9 4.5 4.5 0 0 0 0 9zm-.429-7.5a.429.429 0 0 1 0 .857c-.946 0-1.714.768-1.714 1.714a.429.429 0 0 1-.857 0A2.571 2.571 0 0 1 10.071 7.5z"></path></symbol><symbol id="action--select-all" preserveAspectRatio="xMinYMin meet"><path d="M8.999 20a8 8 0 0 1 0-16c-.91.684-1.7 1.52-2.333 2.47a6.002 6.002 0 0 0 0 11.06C7.298 18.48 8.088 19.315 9 20zm4.535-4.94a.997.997 0 0 1-.68-.292l-2.122-2.122a1 1 0 0 1 1.414-1.414l1.604 1.604 3.664-3.664a1 1 0 1 1 1.414 1.414l-4.242 4.242a1 1 0 0 1-1.052.232zM15 20a8 8 0 1 1 0-16 8 8 0 0 1 0 16zm0-2a6 6 0 1 0 0-12 6 6 0 0 0 0 12z"></path></symbol><symbol id="action--send-all" preserveAspectRatio="xMinYMin meet"><path d="M17.307 5.293a.999.999 0 1 0-1.414 1.414L19.1 10l-3.207 3.293a.999.999 0 1 0 1.414 1.414L22.014 10l-4.707-4.707zM16.904 10l-4.707 4.707a.997.997 0 0 1-1.414 0 .999.999 0 0 1 0-1.414L13.016 11H10c-.386 0-.777.036-1.169.114C5.977 11.681 4 14.195 4 16.999V18a1 1 0 0 1-2 0v-1.001A8.002 8.002 0 0 1 10 9h3.016l-2.233-2.293a.999.999 0 1 1 1.414-1.414L16.904 10z"></path></symbol><symbol id="action--send" preserveAspectRatio="xMinYMin meet"><path d="M17.116 9l-2.233-2.293a.999.999 0 1 1 1.414-1.414L21.004 10l-4.707 4.707a.997.997 0 0 1-1.414 0 .999.999 0 0 1 0-1.414L17.116 11H12c-.386 0-.777.036-1.169.114C7.977 11.681 6 14.195 6 16.999V18a1 1 0 1 1-2 0v-1.001A8.002 8.002 0 0 1 12 9h5.116z"></path></symbol><symbol id="action--separate" preserveAspectRatio="xMinYMin meet"><path d="M18.526 13H16a1 1 0 1 1 0-2h2.526l-2.233-2.293a.999.999 0 1 1 1.414-1.414L22.414 12l-4.707 4.707a.997.997 0 0 1-1.414 0 .999.999 0 0 1 0-1.414L18.526 13zM5.478 11H7.99a1 1 0 0 1 0 2H5.477l2.234 2.293a1 1 0 0 1-1.414 1.414L1.59 12l4.707-4.707a.999.999 0 1 1 1.414 1.414L5.478 11zM11 11h2a1 1 0 0 1 0 2h-2a1 1 0 1 1 0-2z"></path></symbol><symbol viewBox="0 0 24 24" id="action--settings" preserveAspectRatio="xMinYMin meet"><g stroke="none" stroke-width="1" fill-rule="evenodd"><path d="M13.5,12 C13.5,11.173 12.827,10.5 12,10.5 C11.173,10.5 10.5,11.173 10.5,12 C10.5,12.827 11.173,13.5 12,13.5 C12.827,13.5 13.5,12.827 13.5,12 Z M8.5,12 C8.5,10.07 10.07,8.5 12,8.5 C13.93,8.5 15.5,10.07 15.5,12 C15.5,13.93 13.93,15.5 12,15.5 C10.07,15.5 8.5,13.93 8.5,12 Z M21.328,8.943 C21.328,9.774 20.955,10.554 20.304,11.082 L19.97,11.354 C19.988,11.568 19.997,11.783 19.997,11.998 C19.997,12.214 19.988,12.431 19.97,12.646 L20.3,12.915 C20.951,13.442 21.323,14.222 21.323,15.055 C21.323,15.444 21.241,15.822 21.08,16.176 C20.823,16.735 20.516,17.271 20.167,17.768 C19.45,18.787 18.126,19.184 16.947,18.732 L16.544,18.579 C16.189,18.824 15.815,19.04 15.425,19.225 L15.358,19.646 C15.16,20.886 14.159,21.834 12.923,21.951 C12.31,22.009 11.693,22.011 11.089,21.957 C9.848,21.846 8.842,20.897 8.643,19.65 L8.575,19.226 C8.186,19.04 7.811,18.824 7.456,18.579 L7.058,18.731 C5.885,19.18 4.563,18.787 3.844,17.775 C3.487,17.273 3.177,16.739 2.922,16.189 C2.756,15.833 2.672,15.452 2.672,15.058 C2.672,14.226 3.045,13.445 3.695,12.918 L4.029,12.646 C4.013,12.432 4.004,12.217 4.004,12.002 C4.004,11.786 4.013,11.569 4.03,11.354 L3.699,11.085 C3.05,10.558 2.677,9.778 2.677,8.946 C2.677,8.555 2.759,8.178 2.921,7.824 C3.177,7.264 3.483,6.729 3.833,6.232 C4.55,5.213 5.874,4.816 7.053,5.267 L7.455,5.421 C7.811,5.176 8.185,4.96 8.574,4.775 L8.642,4.354 C8.84,3.114 9.841,2.166 11.077,2.049 C11.69,1.991 12.307,1.989 12.911,2.043 C14.152,2.154 15.159,3.103 15.357,4.349 L15.425,4.775 C15.815,4.96 16.189,5.176 16.544,5.421 L16.942,5.269 C18.115,4.82 19.437,5.213 20.156,6.225 C20.513,6.727 20.823,7.26 21.079,7.811 C21.244,8.167 21.328,8.548 21.328,8.943 Z M19.328,8.942 C19.328,8.844 19.307,8.745 19.264,8.652 C19.059,8.209 18.812,7.785 18.526,7.384 C18.333,7.112 17.969,7.018 17.657,7.137 L16.179,7.703 L16.18,7.702 C15.456,6.997 14.578,6.497 13.632,6.229 L13.382,4.665 C13.33,4.334 13.066,4.065 12.732,4.035 C12.247,3.992 11.756,3.994 11.265,4.04 C10.933,4.072 10.67,4.34 10.617,4.669 L10.367,6.232 L10.368,6.23 C9.396,6.505 8.523,7.016 7.819,7.702 L6.339,7.135 C6.025,7.016 5.661,7.109 5.469,7.383 C5.187,7.782 4.944,8.208 4.739,8.656 C4.696,8.75 4.677,8.848 4.677,8.946 C4.677,9.167 4.78,9.387 4.96,9.533 L6.188,10.53 L6.188,10.529 C6.064,11.016 6.004,11.51 6.004,12.002 C6.004,12.499 6.065,12.993 6.187,13.472 L4.956,14.471 C4.776,14.617 4.672,14.836 4.672,15.058 C4.672,15.156 4.692,15.255 4.736,15.348 C4.941,15.79 5.188,16.215 5.474,16.616 C5.668,16.889 6.031,16.982 6.343,16.863 L7.821,16.298 L7.819,16.298 C8.544,17.003 9.422,17.503 10.368,17.771 L10.617,19.336 C10.67,19.666 10.935,19.935 11.268,19.965 C11.753,20.009 12.244,20.006 12.735,19.96 C13.067,19.929 13.331,19.66 13.383,19.33 L13.632,17.768 L13.632,17.77 C14.604,17.495 15.477,16.983 16.181,16.299 L17.662,16.865 C17.974,16.984 18.339,16.891 18.532,16.617 C18.812,16.218 19.056,15.792 19.261,15.344 C19.303,15.251 19.323,15.152 19.323,15.055 C19.323,14.832 19.22,14.613 19.04,14.468 L17.811,13.47 L17.812,13.471 C17.936,12.984 17.997,12.49 17.997,11.998 C17.997,11.501 17.935,11.007 17.813,10.528 L19.044,9.529 C19.224,9.383 19.328,9.164 19.328,8.942 Z" fill-rule="nonzero"></path></g></symbol><symbol id="action--signout" preserveAspectRatio="xMinYMin meet"><path d="M17.527 13H10a1 1 0 0 1 0-2h7.526l-2.233-2.293a.999.999 0 1 1 1.414-1.414L21.414 12l-4.707 4.707a.997.997 0 0 1-1.414 0 .999.999 0 0 1 0-1.414L17.527 13zM6 4h7a1 1 0 0 1 0 2H7v12h6a1 1 0 0 1 0 2H6a1 1 0 0 1-1-1V5a1 1 0 0 1 1-1z"></path></symbol><symbol id="action--sort-ascending" preserveAspectRatio="xMinYMin meet"><path d="M8.002 5L8 16.173l1.293-1.293a1 1 0 1 1 1.414 1.414L7 20l-3.707-3.706a.997.997 0 0 1 0-1.414 1 1 0 0 1 1.414 0L6 16.173 6.002 5a1 1 0 0 1 2 0zM13 13h5a1 1 0 0 1 0 2h-5a1 1 0 0 1 0-2zm0 4h7a1 1 0 0 1 0 2h-7a1 1 0 0 1 0-2zm0-8h4a1 1 0 0 1 0 2h-4a1 1 0 0 1 0-2zm0-4h3a1 1 0 0 1 0 2h-3a1 1 0 0 1 0-2z" fill-rule="nonzero"></path></symbol><symbol id="action--sort-descending" preserveAspectRatio="xMinYMin meet"><path d="M8.002 19a1 1 0 0 1-2 0L6 7.827 4.707 9.12a1 1 0 1 1-1.414-1.413L7 4l3.707 3.706A1 1 0 1 1 9.293 9.12L8 7.826 8.002 19zM13 9h5a1 1 0 0 1 0 2h-5a1 1 0 0 1 0-2zm0-4h7a1 1 0 0 1 0 2h-7a1 1 0 0 1 0-2zm0 8h4a1 1 0 0 1 0 2h-4a1 1 0 0 1 0-2zm0 4h3a1 1 0 0 1 0 2h-3a1 1 0 0 1 0-2z" fill-rule="nonzero"></path></symbol><symbol id="action--tag-multiple" preserveAspectRatio="xMinYMin meet"><path d="M10.025 5.254a5.502 5.502 0 0 1 6.342 1.035l5.718 5.718a1 1 0 0 1 0 1.414l-5.364 5.364a1 1 0 0 1-1.414 0l-1.64-1.64-2.206 2.207a1 1 0 0 1-1.414 0l-6.01-6.009a5.087 5.087 0 0 1 5.988-8.09zm1.798 1.486l5.419 5.418a1 1 0 0 1 0 1.414l-2.16 2.16.932.931 3.95-3.95-5.011-5.01a3.496 3.496 0 0 0-3.13-.963zm-1.816 9.744l.747.747 4.366-4.366-5.302-5.302a3.087 3.087 0 0 0-4.366 4.366L9.3 15.777l3.62-3.621c.183-.183.491-.173.686.021.194.195.204.503.022.686l-3.621 3.62zM8 12.025a2 2 0 1 1 0-4 2 2 0 0 1 0 4zm0-1a1 1 0 1 0 0-2 1 1 0 0 0 0 2z"></path></symbol><symbol id="action--tag-single" preserveAspectRatio="xMinYMin meet"><path d="M12.007 16.484l.747.747 4.366-4.366-5.302-5.302a3.087 3.087 0 0 0-4.366 4.366l3.848 3.848 3.62-3.621c.183-.183.491-.173.686.021.194.195.204.503.022.686l-3.621 3.62zm1.225-10.335l6.01 6.009a1 1 0 0 1 0 1.414l-5.78 5.78a1 1 0 0 1-1.415 0l-6.01-6.009a5.087 5.087 0 0 1 7.195-7.194zM10 12.025a2 2 0 1 1 0-4 2 2 0 0 1 0 4zm0-1a1 1 0 1 0 0-2 1 1 0 0 0 0 2z"></path></symbol><symbol id="action--undo" preserveAspectRatio="xMinYMin meet"><path d="M6 6.707A8 8 0 1 1 5.072 16a1 1 0 1 1 1.732-1 6 6 0 1 0 10.392-6 6 6 0 0 0-9.671-1H9a1 1 0 0 1 0 2H4V5a1 1 0 0 1 2 0v1.706z"></path></symbol><symbol id="action--unselect-all" preserveAspectRatio="xMinYMin meet"><path d="M8.999 20a8 8 0 0 1 0-16c-.91.684-1.7 1.52-2.333 2.47a6.002 6.002 0 0 0 0 11.06C7.298 18.48 8.088 19.315 9 20zm7.415-8l1.414 1.414a1 1 0 1 1-1.414 1.414L15 13.414l-1.414 1.414a1 1 0 1 1-1.414-1.414L13.586 12l-1.414-1.414a1 1 0 1 1 1.414-1.414L15 10.586l1.414-1.414a1 1 0 1 1 1.414 1.414L16.414 12zM15 20a8 8 0 1 1 0-16 8 8 0 0 1 0 16zm0-2a6 6 0 1 0 0-12 6 6 0 0 0 0 12z"></path></symbol><symbol id="action--upload" preserveAspectRatio="xMinYMin meet"><path d="M4 19a1 1 0 0 1 1-1h14a1 1 0 0 1 0 2H5a1 1 0 0 1-1-1m6.996-3l.002-8.173-3.293 3.292a.999.999 0 1 1-1.414-1.413L11.998 4l5.707 5.706a.996.996 0 0 1 0 1.413.999.999 0 0 1-1.414 0l-3.293-3.292L12.996 16a1 1 0 0 1-2 0"></path></symbol><symbol id="action--view-list" preserveAspectRatio="xMinYMin meet"><path d="M6 5a1 1 0 1 1 0 2 1 1 0 0 1 0-2zm0 4a1 1 0 1 1 0 2 1 1 0 0 1 0-2zm3-4h9a1 1 0 0 1 0 2H9a1 1 0 1 1 0-2zm0 4h9a1 1 0 0 1 0 2H9a1 1 0 0 1 0-2zm-3 4a1 1 0 1 1 0 2 1 1 0 0 1 0-2zm3 0h9a1 1 0 0 1 0 2H9a1 1 0 0 1 0-2zm-3 4a1 1 0 1 1 0 2 1 1 0 0 1 0-2zm3 0h9a1 1 0 0 1 0 2H9a1 1 0 0 1 0-2z"></path></symbol><symbol id="action--view-reversed" preserveAspectRatio="xMinYMin meet"><path d="M12 19.015c-3.04 0-6.07-1.942-9.087-5.825a2 2 0 0 1 .008-2.465C5.936 6.898 8.962 4.985 12 4.985c3.038 0 6.064 1.913 9.079 5.74a2 2 0 0 1 .008 2.465c-3.018 3.883-6.047 5.825-9.087 5.825zM12 16a4 4 0 1 0 0-8 4 4 0 0 0 0 8zm0-2a2 2 0 1 1 0-4 2 2 0 0 1 0 4z"></path></symbol><symbol id="action--view" preserveAspectRatio="xMinYMin meet"><path d="M12 17.015c2.321 0 4.833-1.61 7.507-5.052-2.67-3.391-5.18-4.978-7.507-4.978-2.326 0-4.836 1.587-7.507 4.978 2.674 3.442 5.186 5.052 7.507 5.052zm0 2c-3.04 0-6.07-1.942-9.087-5.825a2 2 0 0 1 .008-2.465C5.936 6.898 8.962 4.985 12 4.985c3.038 0 6.064 1.913 9.079 5.74a2 2 0 0 1 .008 2.465c-3.018 3.883-6.047 5.825-9.087 5.825zM12 16a4 4 0 1 0 0-8 4 4 0 0 0 0 8zm-1-4a1 1 0 1 1 0-2 1 1 0 0 1 0 2z"></path></symbol><symbol id="action--zoom-in" preserveAspectRatio="xMinYMin meet"><path d="M11 10h1.5a.5.5 0 1 1 0 1H11v1.5a.5.5 0 1 1-1 0V11H8.5a.5.5 0 1 1 0-1H10V8.5a.5.5 0 1 1 1 0V10zm4.299 4.884l3.146 3.146a1 1 0 1 1-1.415 1.415l-3.301-3.302a6.5 6.5 0 1 1 1.57-1.258zM10.5 15a4.5 4.5 0 1 0 0-9 4.5 4.5 0 0 0 0 9z"></path></symbol><symbol id="action--zoom-out" preserveAspectRatio="xMinYMin meet"><path d="M15.299 14.884l3.146 3.146a1 1 0 1 1-1.415 1.415l-3.301-3.302a6.5 6.5 0 1 1 1.57-1.258zM10.5 15a4.5 4.5 0 1 0 0-9 4.5 4.5 0 0 0 0 9zm2.5-4.5a.5.5 0 0 1-.5.5h-4a.5.5 0 1 1 0-1h4a.5.5 0 0 1 .5.5z"></path></symbol><symbol id="alert--education" preserveAspectRatio="xMinYMin meet"><path d="M7 10.755l-.892-.233C5.704 12.389 5.5 14.883 5.5 18a.5.5 0 1 1-1 0c0-3.2.212-5.775.64-7.731l-2.078-.543a.75.75 0 0 1 0-1.452l8.685-2.27a1 1 0 0 1 .506 0l8.685 2.27a.75.75 0 0 1 0 1.452l-8.685 2.27a1 1 0 0 1-.506 0L9 11.279V15c1.882.81 4.118.81 6 0v-1.72a1 1 0 0 1 .757-.97l.243-.06a.805.805 0 0 1 1 .78V16c-4 2-6 2-10 0v-5.245z"></path></symbol><symbol id="alert--flag-check" preserveAspectRatio="xMinYMin meet"><path d="M7 14v6a1 1 0 0 1-2 0V5a1 1 0 0 1 1-1h13.586a1 1 0 0 1 .707 1.707L17 9l3.293 3.293A1 1 0 0 1 19.586 14H7zm0-8v2h2v2H7v2h2v-2h2v2h2v-2h2v2h2.172l-2.293-2.293a1 1 0 0 1 0-1.414L17.172 6H15v2h-2V6h-2v2H9V6H7zm4 2h2v2h-2V8z"></path></symbol><symbol id="alert--flag-fill" preserveAspectRatio="xMinYMin meet"><path d="M7 14v6a1 1 0 0 1-2 0V5a1 1 0 0 1 1-1h13.586a1 1 0 0 1 .707 1.707L17 9l3.293 3.293A1 1 0 0 1 19.586 14H7z"></path></symbol><symbol id="alert--flag" preserveAspectRatio="xMinYMin meet"><path d="M7 14v6a1 1 0 0 1-2 0V5a1 1 0 0 1 1-1h13.586a1 1 0 0 1 .707 1.707L17 9l3.293 3.293A1 1 0 0 1 19.586 14H7zm0-8v6h10.172l-2.293-2.293a1 1 0 0 1 0-1.414L17.172 6H7z"></path></symbol><symbol id="alert--info-fill" preserveAspectRatio="xMinYMin meet"><path d="M12 20a8 8 0 1 1 0-16 8 8 0 0 1 0 16zm0-9a1 1 0 0 0-1 1v3a1 1 0 0 0 2 0v-3a1 1 0 0 0-1-1zm0-1a1 1 0 1 0 0-2 1 1 0 0 0 0 2z"></path></symbol><symbol id="alert--info" preserveAspectRatio="xMinYMin meet"><path d="M12 21a9 9 0 1 1 0-18 9 9 0 0 1 0 18zm0-2a7 7 0 1 0 0-14 7 7 0 0 0 0 14zm0-8a1 1 0 0 1 1 1v3a1 1 0 0 1-2 0v-3a1 1 0 0 1 1-1zm0-1a1 1 0 1 1 0-2 1 1 0 0 1 0 2z"></path></symbol><symbol id="alert--notification" preserveAspectRatio="xMinYMin meet"><path d="M4 8c4.839 0 8.46-1.517 12.865-4.552A2 2 0 0 1 20 5.095V9a1 1 0 0 1 1 1v3a1 1 0 0 1-1 1v2.25a2 2 0 0 1-3.024 1.718C14.546 16.518 12.292 15.655 10 15v3.524a2.476 2.476 0 1 1-4.952 0v-4.503A25.632 25.632 0 0 0 4 14a1 1 0 0 1-1-1V9a1 1 0 0 1 1-1zm3.5 6a.5.5 0 0 0-.5.5v4a.5.5 0 1 0 1 0v-4a.5.5 0 0 0-.5-.5zM5 10v2c4 0 8.333 1.333 13 4V5c-3 3-9 5-13 5z"></path></symbol><symbol id="alert--question-fill" preserveAspectRatio="xMinYMin meet"><path d="M12 20a8 8 0 1 1 0-16 8 8 0 0 1 0 16zm-.867-5.077a.71.71 0 0 0 .217.533c.145.14.336.21.574.21.238 0 .429-.07.574-.21a.709.709 0 0 0 .217-.533.714.714 0 0 0-.222-.54.79.79 0 0 0-.569-.212.79.79 0 0 0-.569.213.714.714 0 0 0-.222.54zm.142-1.499h1.25l.02-.297a1.34 1.34 0 0 1 .424-.835l.395-.376c.31-.3.526-.572.65-.818a1.72 1.72 0 0 0 .185-.784c0-.609-.19-1.08-.57-1.414-.382-.333-.917-.5-1.607-.5-.684 0-1.223.176-1.619.527-.395.352-.596.839-.603 1.46h1.416c.007-.26.082-.464.227-.612.145-.149.338-.223.579-.223.507 0 .761.275.761.826 0 .182-.048.355-.146.52-.098.164-.294.377-.588.64-.295.261-.498.527-.608.798-.111.27-.166.633-.166 1.088z"></path></symbol><symbol id="alert--question" preserveAspectRatio="xMinYMin meet"><path d="M12 20a8 8 0 1 1 0-16 8 8 0 0 1 0 16zm0-2a6 6 0 1 0 0-12 6 6 0 0 0 0 12zm-.867-3.077c0-.218.074-.398.222-.54a.79.79 0 0 1 .569-.212.79.79 0 0 1 .569.213.714.714 0 0 1 .222.54.709.709 0 0 1-.217.532c-.145.14-.336.21-.574.21-.238 0-.429-.07-.574-.21a.709.709 0 0 1-.217-.533zm.142-1.499c0-.455.055-.818.166-1.088.11-.27.313-.537.608-.799.294-.262.49-.475.588-.64a.996.996 0 0 0 .146-.52c0-.55-.254-.825-.761-.825-.241 0-.434.074-.579.223-.145.148-.22.352-.227.612H9.8c.007-.621.208-1.108.603-1.46.396-.351.935-.527 1.619-.527.69 0 1.225.167 1.606.5.381.334.571.805.571 1.414 0 .277-.061.538-.185.784s-.34.518-.65.818l-.395.376a1.34 1.34 0 0 0-.425.835l-.02.297h-1.25z"></path></symbol><symbol id="alert--warning-fill" preserveAspectRatio="xMinYMin meet"><path d="M21.175 18.514A1 1 0 0 1 20.3 20H3.7a1 1 0 0 1-.875-1.486l8.3-14.94a1 1 0 0 1 1.75 0l8.3 14.94zM11.5 9a.5.5 0 0 0-.5.5v4a.5.5 0 0 0 .5.5h1a.5.5 0 0 0 .5-.5v-4a.5.5 0 0 0-.5-.5h-1zm.5 8a1 1 0 1 0 0-2 1 1 0 0 0 0 2z"></path></symbol><symbol id="alert--warning" preserveAspectRatio="xMinYMin meet"><path d="M5.399 18h13.202L12 6.118 5.399 18zm15.776.514A1 1 0 0 1 20.3 20H3.7a1 1 0 0 1-.875-1.486l8.3-14.94a1 1 0 0 1 1.75 0l8.3 14.94zM11.5 9a.5.5 0 0 0-.5.5v4a.5.5 0 0 0 .5.5h1a.5.5 0 0 0 .5-.5v-4a.5.5 0 0 0-.5-.5h-1zm.5 8a1 1 0 1 0 0-2 1 1 0 0 0 0 2z"></path></symbol><symbol id="av--play-fill" preserveAspectRatio="xMinYMin meet"><path d="M12 20a8 8 0 1 1 0-16 8 8 0 0 1 0 16zM10.724 9.362a.5.5 0 0 0-.724.447v4.382a.5.5 0 0 0 .724.447l4.382-2.19a.5.5 0 0 0 0-.895l-4.382-2.191z"></path></symbol><symbol id="av--play-lrg" preserveAspectRatio="xMinYMin meet"><path d="M12 20a8 8 0 1 1 0-16 8 8 0 0 1 0 16zm0-1a7 7 0 1 0 0-14 7 7 0 0 0 0 14zm3.106-7.447a.5.5 0 0 1 0 .894l-4.382 2.191a.5.5 0 0 1-.724-.447V9.809a.5.5 0 0 1 .724-.447l4.382 2.19z"></path></symbol><symbol id="av--play" preserveAspectRatio="xMinYMin meet"><path d="M12 20a8 8 0 1 1 0-16 8 8 0 0 1 0 16zm0-2a6 6 0 1 0 0-12 6 6 0 0 0 0 12zm-1.276-8.638l4.382 2.19a.5.5 0 0 1 0 .895l-4.382 2.191a.5.5 0 0 1-.724-.447V9.809a.5.5 0 0 1 .724-.447z"></path></symbol><symbol id="document--blank" preserveAspectRatio="xMinYMin meet"><path d="M6 3h9.172a2 2 0 0 1 1.414.586l2.828 2.828A2 2 0 0 1 20 7.828V19a2 2 0 0 1-2 2H6a2 2 0 0 1-2-2V5a2 2 0 0 1 2-2zm0 2v14h12V9h-3a1 1 0 0 1-1-1V5H6zm9 0v3h3l-3-3z"></path></symbol><symbol id="document--folder" preserveAspectRatio="xMinYMin meet"><path d="M10 5l2 2h8a1 1 0 0 1 1 1v10a2 2 0 0 1-2 2H5a2 2 0 0 1-2-2V6a1 1 0 0 1 1-1h6zm9 6V9h-7.828l-2-2H5v11h14v-6H7v-1h12z"></path></symbol><symbol id="document--image" preserveAspectRatio="xMinYMin meet"><path d="M12.596 14.197l-1.575-1.891L8.4 15.8a.5.5 0 0 1-.8-.6l3-4a.5.5 0 0 1 .784-.02l1.922 2.307.34-.34a.5.5 0 0 1 .708 0l2 2a.5.5 0 1 1-.708.707L14 14.207l-1.646 1.647a.5.5 0 1 1-.708-.708l.95-.95zM6 3h9.172a2 2 0 0 1 1.414.586l2.828 2.828A2 2 0 0 1 20 7.828V19a2 2 0 0 1-2 2H6a2 2 0 0 1-2-2V5a2 2 0 0 1 2-2zm0 2v14h12V9h-3a1 1 0 0 1-1-1V5H6zm9 7a1 1 0 1 1 0-2 1 1 0 0 1 0 2zm0-7v3h3l-3-3z"></path></symbol><symbol id="document--spreadsheet" preserveAspectRatio="xMinYMin meet"><path d="M6 3h9.172a2 2 0 0 1 1.414.586l2.828 2.828A2 2 0 0 1 20 7.828V19a2 2 0 0 1-2 2H6a2 2 0 0 1-2-2V5a2 2 0 0 1 2-2zm0 2v14h12V9h-3a1 1 0 0 1-1-1V5H6zm9 0v3h3l-3-3zM8 8h5v1H8V8zm0 2h2v1H8v-1zm0 2h2v1H8v-1zm0 4h2v1H8v-1zm0-2h2v1H8v-1zm3-4h2v1h-2v-1zm0 2h2v1h-2v-1zm0 4h2v1h-2v-1zm0-2h2v1h-2v-1zm3-4h2v1h-2v-1zm0 2h2v1h-2v-1zm0 4h2v1h-2v-1zm0-2h2v1h-2v-1z"></path></symbol><symbol id="document--sticky-note" preserveAspectRatio="xMinYMin meet"><path d="M20 6v9.172a2 2 0 0 1-.586 1.414l-2.828 2.828a2 2 0 0 1-1.414.586H6a2 2 0 0 1-2-2V6a2 2 0 0 1 2-2h12a2 2 0 0 1 2 2zm-2 0H6v12h8v-3a1 1 0 0 1 1-1h3V6zm0 9h-3v3l3-3zM7 7h10v1H7V7z"></path></symbol><symbol id="document--text" preserveAspectRatio="xMinYMin meet"><path d="M6 3h9.172a2 2 0 0 1 1.414.586l2.828 2.828A2 2 0 0 1 20 7.828V19a2 2 0 0 1-2 2H6a2 2 0 0 1-2-2V5a2 2 0 0 1 2-2zm0 2v14h12V9h-3a1 1 0 0 1-1-1V5H6zm9 0v3h3l-3-3zm-6.5 5h7a.5.5 0 1 1 0 1h-7a.5.5 0 1 1 0-1zm0-2h4a.5.5 0 1 1 0 1h-4a.5.5 0 0 1 0-1zm0 4h7a.5.5 0 1 1 0 1h-7a.5.5 0 1 1 0-1zm0 2h7a.5.5 0 1 1 0 1h-7a.5.5 0 1 1 0-1zm0 2h7a.5.5 0 1 1 0 1h-7a.5.5 0 1 1 0-1z"></path></symbol><symbol id="document--upload-fill" preserveAspectRatio="xMinYMin meet"><path d="M12.997 19l.001-6.173 1.293 1.292a1 1 0 1 0 1.414-1.413L11.998 9l-3.707 3.706a1 1 0 1 0 1.414 1.414l1.293-1.293L10.997 19H5a4 4 0 0 1 0-8c.065 0 .125.016.189.019A2.997 2.997 0 0 1 5 10a3 3 0 0 1 3-3c.382 0 .744.079 1.08.208A4 4 0 0 1 13 4c2.209 0 4 1.791 3.998 4.025A5.5 5.5 0 1 1 17.5 19c-.169 0-.335.015-.5 0h-4.003z"></path></symbol><symbol id="document--upload" preserveAspectRatio="xMinYMin meet"><path d="M14 18a1 1 0 0 1 1-1h2.5a3.5 3.5 0 1 0 0-7H16a1 1 0 0 1-1-1V8a2 2 0 0 0-4 0v.5a.5.5 0 0 1-.5.5H8a1 1 0 0 0-1 1v2a1 1 0 0 1-1 1H5a2 2 0 0 0 0 4h4a1 1 0 0 1 0 2H5a4 4 0 0 1 0-8c.065 0 .125.016.189.019A2.997 2.997 0 0 1 5 10a3 3 0 0 1 3-3c.382 0 .744.079 1.08.208A4 4 0 0 1 13 4c2.209 0 4 1.791 3.998 4.025A5.5 5.5 0 1 1 17.5 19H15a1 1 0 0 1-1-1zm-1 3a1 1 0 0 1-2 0l-.002-7.173-1.293 1.292a1 1 0 1 1-1.414-1.413L11.998 10l3.707 3.706a1 1 0 1 1-1.414 1.414l-1.293-1.293L13 21z"></path></symbol><symbol id="face--happy" preserveAspectRatio="xMinYMin meet"><path d="M12 20a8 8 0 1 1 0-16 8 8 0 0 1 0 16zm0-2a6 6 0 1 0 0-12 6 6 0 0 0 0 12zm-2-7a1 1 0 1 1 0-2 1 1 0 0 1 0 2zm4 0a1 1 0 1 1 0-2 1 1 0 0 1 0 2zm-2 5c-2.21 0-4-1.438-4-3h8c0 1.562-1.79 3-4 3z"></path></symbol><symbol id="face--sad" preserveAspectRatio="xMinYMin meet"><path d="M12 20a8 8 0 1 1 0-16 8 8 0 0 1 0 16zm0-2a6 6 0 1 0 0-12 6 6 0 0 0 0 12zm-2-6a1 1 0 1 1 0-2 1 1 0 0 1 0 2zm4 0a1 1 0 1 1 0-2 1 1 0 0 1 0 2zm-2 1c1.657 0 3 .959 3 2H9c0-1.041 1.343-2 3-2z"></path></symbol><symbol id="illustration--bar-graph" preserveAspectRatio="xMinYMin meet"><path d="M5.5 5a.5.5 0 0 1 .5.5V18h13.5a.5.5 0 1 1 0 1H5V5.5a.5.5 0 0 1 .5-.5zm2 8h1a.5.5 0 0 1 .5.5v3a.5.5 0 0 1-.5.5h-1a.5.5 0 0 1-.5-.5v-3a.5.5 0 0 1 .5-.5zm3-6h1a.5.5 0 0 1 .5.5v9a.5.5 0 0 1-.5.5h-1a.5.5 0 0 1-.5-.5v-9a.5.5 0 0 1 .5-.5zm3 2h1a.5.5 0 0 1 .5.5v7a.5.5 0 0 1-.5.5h-1a.5.5 0 0 1-.5-.5v-7a.5.5 0 0 1 .5-.5zm3-4h1a.5.5 0 0 1 .5.5v11a.5.5 0 0 1-.5.5h-1a.5.5 0 0 1-.5-.5v-11a.5.5 0 0 1 .5-.5z"></path></symbol><symbol id="illustration--barcode" preserveAspectRatio="xMinYMin meet"><path d="M7.5 6a.5.5 0 0 1 .5.5v11a.5.5 0 1 1-1 0v-11a.5.5 0 0 1 .5-.5zm2 0a.5.5 0 0 1 .5.5v11a.5.5 0 1 1-1 0v-11a.5.5 0 0 1 .5-.5zm7 0a.5.5 0 0 1 .5.5v7a.5.5 0 1 1-1 0v-7a.5.5 0 0 1 .5-.5zm0 9a.5.5 0 0 1 .5.5v2a.5.5 0 1 1-1 0v-2a.5.5 0 0 1 .5-.5zm-2-9a.5.5 0 0 1 .5.5v7a.5.5 0 1 1-1 0v-7a.5.5 0 0 1 .5-.5zm0 9a.5.5 0 0 1 .5.5v2a.5.5 0 1 1-1 0v-2a.5.5 0 0 1 .5-.5zm-10-9h1a.5.5 0 0 1 .5.5v11a.5.5 0 0 1-.5.5h-1a.5.5 0 0 1-.5-.5v-11a.5.5 0 0 1 .5-.5zm7 0h1a.5.5 0 0 1 .5.5v7a.5.5 0 0 1-.5.5h-1a.5.5 0 0 1-.5-.5v-7a.5.5 0 0 1 .5-.5zm0 9h1a.5.5 0 0 1 .5.5v2a.5.5 0 0 1-.5.5h-1a.5.5 0 0 1-.5-.5v-2a.5.5 0 0 1 .5-.5zm7-9h1a.5.5 0 0 1 .5.5v11a.5.5 0 0 1-.5.5h-1a.5.5 0 0 1-.5-.5v-11a.5.5 0 0 1 .5-.5z"></path></symbol><symbol id="illustration--beaker" preserveAspectRatio="xMinYMin meet"><path d="M3.807 19.521L9 10V6a1 1 0 0 1-1-1V4a1 1 0 0 1 1-1h6a1 1 0 0 1 1 1v1a1 1 0 0 1-1 1v4l5.193 9.521A1 1 0 0 1 19.315 21H4.685a1 1 0 0 1-.878-1.479zM11 5v5l-5 9h12l-5-9V5h-2zm2 9a.472.472 0 0 1 .894-.211L16 18h-1l-2-4z"></path></symbol><symbol id="illustration--bolt" preserveAspectRatio="xMinYMin meet"><path d="M7.608 13H12v5.026L16.392 11H12V5.974L7.608 13zm-2.652.47l7.196-11.513a1 1 0 0 1 1.848.53V9h4.196a1 1 0 0 1 .848 1.53l-7.196 11.513a1 1 0 0 1-1.848-.53V15H5.804a1 1 0 0 1-.848-1.53z"></path></symbol><symbol id="illustration--browser" preserveAspectRatio="xMinYMin meet"><path d="M6 5h12c1.105 0 2 .964 2 2.154v9.692c0 1.19-.895 2.154-2 2.154H6c-1.105 0-2-.964-2-2.154V7.154C4 5.964 4.895 5 6 5zm0 5v7h12v-7H6zm8.5-3a.5.5 0 1 0 0 1h3a.5.5 0 1 0 0-1h-3zm-8 1a.5.5 0 1 0 0-1 .5.5 0 0 0 0 1zm2 0a.5.5 0 1 0 0-1 .5.5 0 0 0 0 1zm2 0a.5.5 0 1 0 0-1 .5.5 0 0 0 0 1z"></path></symbol><symbol id="illustration--bug" preserveAspectRatio="xMinYMin meet"><path d="M13 19.9V16a1 1 0 1 0-2 0v3.9a5.003 5.003 0 0 1-2.565-8.406C9 12 10.604 13 12 13c1.397 0 3-1 3.568-1.503A5.003 5.003 0 0 1 13 19.9M12 5a3 3 0 1 1 0 6 3 3 0 0 1 0-6m7 11h2a1 1 0 1 0 0-2h-2c-.027 0-.051.013-.077.015a6.928 6.928 0 0 0-.416-1.576l2.091-1.207a1 1 0 0 0-1-1.732l-2.081 1.202a7.132 7.132 0 0 0-.846-.916 4.984 4.984 0 0 0-2.045-6.025.979.979 0 0 0 .374-.76 1 1 0 1 0-2 0c0 .036.018.068.021.105a4.98 4.98 0 0 0-2.042 0C10.982 3.07 11 3.037 11 3a1 1 0 1 0-2 0c0 .311.151.578.374.761a4.984 4.984 0 0 0-2.045 6.025 7.038 7.038 0 0 0-.841.91L4.416 9.5a1 1 0 1 0-1 1.732l2.08 1.201a6.904 6.904 0 0 0-.419 1.582C5.05 14.013 5.027 14 5 14H3a1 1 0 1 0 0 2h2c.027 0 .05-.014.077-.016.079.561.222 1.101.426 1.611L3.416 18.8a1 1 0 0 0 1 1.733l2.088-1.206A6.983 6.983 0 0 0 17.5 19.32l2.098 1.212a1 1 0 0 0 1-1.733L18.5 17.59a6.976 6.976 0 0 0 .423-1.605c.026.002.05.016.077.016"></path></symbol><symbol id="illustration--bullseye" preserveAspectRatio="xMinYMin meet"><path d="M12 20a8 8 0 1 1 0-16 8 8 0 0 1 0 16zm0-2a6 6 0 1 0 0-12 6 6 0 0 0 0 12zm0-1a5 5 0 1 1 0-10 5 5 0 0 1 0 10zm0-2a3 3 0 1 0 0-6 3 3 0 0 0 0 6zm0-1a2 2 0 1 1 0-4 2 2 0 0 1 0 4z"></path></symbol><symbol id="illustration--castle" preserveAspectRatio="xMinYMin meet"><path d="M16 12h1.276v-2H19v2h1v-2h2v10a1 1 0 0 1-1 1H3a1 1 0 0 1-1-1V10h2v2h1v-2h1.724v2H8v-1.697a1 1 0 0 1 .168-.555l3-4.5a.996.996 0 0 1 .332-.312V2a1 1 0 0 1 1-1l3 1.5-3 1.5v.937a1.015 1.015 0 0 1 .332.311l3 4.5a1 1 0 0 1 .168.555V12zM4 14v5h4v-5H4zm10-2h-4v7h1v-2a1 1 0 0 1 2 0v2h1v-7zm0-1v-.394l-2-3-2 3V11h4zm6 3h-4v5h4v-5zm-8-1a1 1 0 0 1 1 1v1h-2v-1a1 1 0 0 1 1-1zm-6 2a1 1 0 0 1 1 1v1H5v-1a1 1 0 0 1 1-1zm12 0a1 1 0 0 1 1 1v1h-2v-1a1 1 0 0 1 1-1z"></path></symbol><symbol id="illustration--code" preserveAspectRatio="xMinYMin meet"><path d="M13.883 7.707a1 1 0 1 1 1.413-1.414L21 12l-5.704 5.707a.996.996 0 0 1-1.413 0 1 1 0 0 1 0-1.414L18.087 12l-4.204-4.293zm-3.766 8.586a1 1 0 1 1-1.413 1.414L3 12l5.704-5.707a.996.996 0 0 1 1.413 0 1 1 0 0 1 0 1.414L5.913 12l4.204 4.293z"></path></symbol><symbol id="illustration--compass" preserveAspectRatio="xMinYMin meet"><path d="M12 20a8 8 0 1 1 0-16 8 8 0 0 1 0 16zm0-2a6 6 0 1 0 0-12 6 6 0 0 0 0 12zm-4.934-6.528l3.693-1.151a4 4 0 0 1 2.381 0l3.693 1.151a.5.5 0 0 1 0 .955l-3.693 1.151a4 4 0 0 1-2.38 0l-3.694-1.15a.5.5 0 0 1 0-.956zM12 13a1 1 0 1 0 0-2 1 1 0 0 0 0 2z"></path></symbol><symbol viewBox="0 0 24 24" id="illustration--dashboard" preserveAspectRatio="xMinYMin meet"><g stroke="none" stroke-width="1" fill-rule="evenodd"><path d="M12,4.0001 C16.418,4.0001 20,7.5821 20,12.0001 C20,16.4181 16.418,20.0001 12,20.0001 C7.582,20.0001 4,16.4181 4,12.0001 C4,7.5821 7.582,4.0001 12,4.0001 Z M12,18.0001 C15.313,18.0001 18,15.3131 18,12.0001 C18,8.6861 15.313,6.0001 12,6.0001 C8.687,6.0001 6,8.6861 6,12.0001 C6,15.3131 8.687,18.0001 12,18.0001 Z M12.873,13.7843 C13.251,14.0563 13.5,14.4983 13.5,15.0003 C13.5,15.8283 12.828,16.5003 12,16.5003 C11.172,16.5003 10.5,15.8283 10.5,15.0003 C10.5,14.4983 10.749,14.0563 11.127,13.7843 C11.298,12.5913 11.625,11.0003 12,11.0003 C12.375,11.0003 12.702,12.5913 12.873,13.7843 Z M12,10.5001 C11.724,10.5001 11.5,10.2761 11.5,10.0001 L11.5,8.0001 C11.5,7.7241 11.724,7.5001 12,7.5001 C12.276,7.5001 12.5,7.7241 12.5,8.0001 L12.5,10.0001 C12.5,10.2761 12.276,10.5001 12,10.5001 Z M13.9404,7.7555 C14.2084,7.8265 14.3664,8.1015 14.2944,8.3675 L13.7774,10.2995 C13.7164,10.5235 13.5144,10.6705 13.2944,10.6705 C13.2514,10.6705 13.2084,10.6655 13.1654,10.6535 C12.8974,10.5825 12.7394,10.3075 12.8104,10.0415 L13.3284,8.1095 C13.4004,7.8425 13.6784,7.6835 13.9404,7.7555 Z M15.75,8.5045 C15.989,8.6425 16.071,8.9485 15.933,9.1875 L14.933,10.9205 C14.841,11.0805 14.672,11.1705 14.5,11.1705 C14.415,11.1705 14.329,11.1485 14.25,11.1035 C14.011,10.9645 13.929,10.6595 14.067,10.4205 L15.067,8.6875 C15.205,8.4495 15.512,8.3675 15.75,8.5045 Z M10.835,10.6534 C10.792,10.6654 10.749,10.6704 10.706,10.6704 C10.485,10.6704 10.283,10.5234 10.223,10.2994 L9.705,8.3674 C9.634,8.1014 9.792,7.8264 10.06,7.7554 C10.325,7.6834 10.6,7.8414 10.672,8.1094 L11.189,10.0414 C11.261,10.3074 11.103,10.5824 10.835,10.6534 Z M8.9326,8.6876 L9.9326,10.4196 C10.0716,10.6596 9.9896,10.9646 9.7496,11.1036 C9.6706,11.1486 9.5846,11.1696 9.4996,11.1696 C9.3286,11.1696 9.1596,11.0806 9.0676,10.9196 L8.0676,9.1876 C7.9286,8.9486 8.0106,8.6426 8.2496,8.5046 C8.4886,8.3666 8.7946,8.4486 8.9326,8.6876 Z" fill-rule="nonzero"></path></g></symbol><symbol id="illustration--hashtag" preserveAspectRatio="xMinYMin meet"><path d="M7.875 14l1.25-4H6a1 1 0 1 1 0-2h3.75l1.03-3.298A1 1 0 0 1 11.736 4H12a.735.735 0 0 1 .702.954L11.75 8h4l1.03-3.298A1 1 0 0 1 17.736 4H18a.735.735 0 0 1 .702.954L17.75 8H21a1 1 0 0 1 0 2h-3.875l-1.25 4H19a1 1 0 0 1 0 2h-3.75l-1.03 3.298a1 1 0 0 1-.955.702H13a.735.735 0 0 1-.702-.954L13.25 16h-4l-1.03 3.298a1 1 0 0 1-.955.702H7a.735.735 0 0 1-.702-.954L7.25 16H4a1 1 0 0 1 0-2h3.875zm2 0h4l1.25-4h-4l-1.25 4z"></path></symbol><symbol id="illustration--keyboard" preserveAspectRatio="xMinYMin meet"><path d="M4 9v7h16V9H4zm-.5-2h17c.828 0 1.5.685 1.5 1.53v7.94c0 .845-.672 1.53-1.5 1.53h-17c-.828 0-1.5-.685-1.5-1.53V8.53C2 7.684 2.672 7 3.5 7zM8 14h7v1H8v-1zm-3 0h2v1H5v-1zm11 0h3v1h-3v-1zm-8-2h1v1H8v-1zm-2 0h1v1H6v-1zm8 0h1v1h-1v-1zm-2 0h1v1h-1v-1zm-2 0h1v1h-1v-1zm6 0h1v1h-1v-1zm2 0h1v1h-1v-1zm-1-2h2v1h-2v-1zm-3 0h2v1h-2v-1zm-3 0h2v1h-2v-1zm-3 0h2v1H8v-1zm-3 0h2v1H5v-1z"></path></symbol><symbol id="illustration--news" preserveAspectRatio="xMinYMin meet"><path d="M6 5h13a1 1 0 0 1 1 1v12a3 3 0 0 1-3 3H5a3 3 0 0 1-3-3v-3a1 1 0 0 1 1-1h2V6a1 1 0 0 1 1-1zm1 2v12h10.09c.503 0 .91-.505.91-1.128V7H7zm-3 8v3a1 1 0 0 0 1 1v-4H4zm4-7h9v4H8V8zm1 1v2h7V9H9zm-1 4h4v5H8v-5zm1 1v3h2v-3H9zm4.5 1h3a.5.5 0 1 1 0 1h-3a.5.5 0 1 1 0-1zm0-2h3a.5.5 0 1 1 0 1h-3a.5.5 0 1 1 0-1zm0 4h3a.5.5 0 1 1 0 1h-3a.5.5 0 1 1 0-1z"></path></symbol><symbol viewBox="0 0 24 24" id="illustration--path" preserveAspectRatio="xMinYMin meet"><path fill-rule="evenodd" clip-rule="evenodd" d="M3 8C3 9.65686 4.34315 11 6 11C7.26472 11 8.34665 10.2174 8.78794 9.11004C8.93752 9.15745 9.06746 9.21791 9.18222 9.28686C9.46853 9.45889 9.71861 9.71916 9.94569 10.0874C10.4259 10.8661 10.7063 11.9485 11.0298 13.2425L11.0509 13.3268C11.3475 14.5141 11.6916 15.8916 12.3519 16.9624C12.703 17.5317 13.1638 18.0526 13.7877 18.4275C14.4167 18.8054 15.1538 19 16 19L17.0858 19L16.2929 19.7929C15.9024 20.1834 15.9024 20.8166 16.2929 21.2071C16.6834 21.5976 17.3166 21.5976 17.7071 21.2071L21 18L17.7071 14.7929C17.3166 14.4024 16.6834 14.4024 16.2929 14.7929C15.9024 15.1834 15.9024 15.8166 16.2929 16.2071L17.0858 17L16 17C15.4712 17 15.0989 16.8821 14.8178 16.7131C14.5314 16.5411 14.2814 16.2808 14.0543 15.9126C13.574 15.1339 13.2937 14.0516 12.9701 12.7575L12.9491 12.6732C12.6525 11.4859 12.3084 10.1084 11.648 9.03761L11.6246 9L15.1707 9C15.5825 10.1652 16.6938 11 18 11C19.6568 11 21 9.65686 21 8C21 6.34315 19.6568 5 18 5C16.6938 5 15.5825 5.83481 15.1707 7L8.82929 7C8.41746 5.83481 7.30622 5 6 5C4.34315 5 3 6.34315 3 8ZM6 9C6.55228 9 7 8.55229 7 8C7 7.44772 6.55228 7 6 7C5.44772 7 5 7.44772 5 8C5 8.55229 5.44771 9 6 9Z"></path></symbol><symbol id="illustration--pie-chart" preserveAspectRatio="xMinYMin meet"><path d="M10 6.341a6 6 0 1 0 4.587 11.074L10 12.829V6.341zM12 20a8 8 0 1 1 0-16v8l5.657 5.657A7.975 7.975 0 0 1 12 20zm1.001-8.999c.011-3.334.017-5.647.017-6.938a8.005 8.005 0 0 1 6.924 6.96c-1.294 0-3.607-.007-6.94-.022zm5.455 5.725L13.5 12H20a7.964 7.964 0 0 1-1.544 4.726z"></path></symbol><symbol id="illustration--pin" preserveAspectRatio="xMinYMin meet"><path d="M7 4h10a2 2 0 0 1 2 2v1a2 2 0 0 1-2 2h-1l-1 3a2 2 0 0 1 2 2v1a2 2 0 0 1-2 2h-2v3l-1 2-1-2v-3H9a2 2 0 0 1-2-2v-1a2 2 0 0 1 2-2L8 9H7a2 2 0 0 1-2-2V6a2 2 0 0 1 2-2zm0 2v1h10V6H7zm2 8v1h6v-1h-2l1-5h-4l1 5H9z"></path></symbol><symbol id="illustration--quote" preserveAspectRatio="xMinYMin meet"><path d="M6.19 10.082A4 4 0 1 1 3 14v-.5A7.5 7.5 0 0 1 10.5 6h.5a1 1 0 0 1 0 2h-.5a5.49 5.49 0 0 0-4.31 2.082zm10 0A4 4 0 1 1 13 14v-.5A7.5 7.5 0 0 1 20.5 6h.5a1 1 0 0 1 0 2h-.5a5.49 5.49 0 0 0-4.31 2.082z"></path></symbol><symbol id="illustration--reward" preserveAspectRatio="xMinYMin meet"><path d="M17 13.899v6.335a1 1 0 0 1-1.514.857L12 19l-3.486 2.091A1 1 0 0 1 7 20.234v-6.335a7 7 0 1 1 10 0zm-8 1.427v3.142l3-1.8 3 1.8c-.004-1.354-.006-2.4-.006-3.139A6.977 6.977 0 0 1 12 16a6.973 6.973 0 0 1-3-.674zM12 14a5 5 0 1 0 0-10 5 5 0 0 0 0 10zm0-1.5a3.5 3.5 0 1 1 0-7 3.5 3.5 0 0 1 0 7zm0-1a2.5 2.5 0 1 0 0-5 2.5 2.5 0 0 0 0 5z"></path></symbol><symbol viewBox="0 0 24 24" id="illustration--skipped" preserveAspectRatio="xMinYMin meet"><path d="M14 8C14 7.44772 14.4477 7 15 7C15.5523 7 16 7.44772 16 8V16C16 16.5523 15.5523 17 15 17C14.4477 17 14 16.5523 14 16V8Z"></path><path d="M9.02426 15.9757L13 12L9.02426 8.02426C8.64629 7.64629 8 7.91399 8 8.44853V15.5515C8 16.086 8.64628 16.3537 9.02426 15.9757Z"></path></symbol><symbol id="illustration--ticket" preserveAspectRatio="xMinYMin meet"><path d="M13.31 2.709a1 1 0 0 1 1.415 0L17 5l-.368 1.103a1 1 0 0 0 1.265 1.265L19 7l2.292 2.292a1 1 0 0 1 0 1.414L10.705 21.293a1 1 0 0 1-1.413 0l-2.29-2.283.365-1.1a1 1 0 0 0-1.272-1.26l-1.088.37-2.299-2.293a1 1 0 0 1-.002-1.414L13.31 2.709zm-2.238 5.067l-6.243 6.242.711.709a3 3 0 0 1 3.749 3.739l.708.706L19.171 10l-.712-.711a3 3 0 0 1-3.745-3.752l-.699-.704-2.24 2.24c.013.01.024.02.036.032l3.535 3.535a.5.5 0 0 1-.707.707l-3.535-3.535a.506.506 0 0 1-.032-.035zM12 13a1 1 0 1 0-2 0 1 1 0 0 0 2 0zm1 0a2 2 0 1 1-4 0 2 2 0 0 1 4 0z"></path></symbol><symbol viewBox="0 0 24 24" id="illustration--trend-down" preserveAspectRatio="xMinYMin meet"><path fill-rule="evenodd" clip-rule="evenodd" d="M3.29289 6.29289C3.68342 5.90237 4.31658 5.90237 4.70711 6.29289L9 10.5858L11.2929 8.29289C11.6834 7.90237 12.3166 7.90237 12.7071 8.29289L19 14.5858V13C19 12.4477 19.4477 12 20 12C20.5523 12 21 12.4477 21 13V18H16C15.4477 18 15 17.5523 15 17C15 16.4477 15.4477 16 16 16H17.5858L12 10.4142L9.70711 12.7071C9.31658 13.0976 8.68342 13.0976 8.29289 12.7071L3.29289 7.70711C2.90237 7.31658 2.90237 6.68342 3.29289 6.29289Z"></path></symbol><symbol viewBox="0 0 24 24" id="illustration--trend-up" preserveAspectRatio="xMinYMin meet"><path fill-rule="evenodd" clip-rule="evenodd" d="M3.29289 17.7071C3.68342 18.0976 4.31658 18.0976 4.70711 17.7071L9 13.4142L11.2929 15.7071C11.6834 16.0976 12.3166 16.0976 12.7071 15.7071L19 9.41421V11C19 11.5523 19.4477 12 20 12C20.5523 12 21 11.5523 21 11V6H16C15.4477 6 15 6.44771 15 7C15 7.55229 15.4477 8 16 8H17.5858L12 13.5858L9.70711 11.2929C9.31658 10.9024 8.68342 10.9024 8.29289 11.2929L3.29289 16.2929C2.90237 16.6834 2.90237 17.3166 3.29289 17.7071Z"></path></symbol><symbol id="input--checkbox-fill" preserveAspectRatio="xMinYMin meet"><path d="M6.75 5h10.5c.966 0 1.75.784 1.75 1.75v10.5A1.75 1.75 0 0 1 17.25 19H6.75A1.75 1.75 0 0 1 5 17.25V6.75C5 5.784 5.784 5 6.75 5zm9.092 4.173l-.001-.002a.49.49 0 0 0-.693-.008L10.5 13.7l-1.62-1.58a.537.537 0 0 0-.772.022.506.506 0 0 0 .034.715L10.5 15l5.33-5.134.001-.001a.49.49 0 0 0 .011-.692z"></path></symbol><symbol id="input--checkbox" preserveAspectRatio="xMinYMin meet"><path d="M6.857 6A.857.857 0 0 0 6 6.857v10.286c0 .473.384.857.857.857h10.286a.857.857 0 0 0 .857-.857V6.857A.857.857 0 0 0 17.143 6H6.857zM6.75 5h10.5c.966 0 1.75.784 1.75 1.75v10.5A1.75 1.75 0 0 1 17.25 19H6.75A1.75 1.75 0 0 1 5 17.25V6.75C5 5.784 5.784 5 6.75 5z"></path></symbol><symbol id="input--favourite-fill" preserveAspectRatio="xMinYMin meet"><path d="M7.9 18.856c-.77.45-1.715-.225-1.518-1.085l1.048-4.574-3.581-3.094c-.674-.582-.313-1.675.58-1.756l4.747-.433 1.885-4.306c.355-.81 1.523-.81 1.878 0l1.885 4.306 4.747.433c.893.081 1.254 1.174.58 1.756l-3.581 3.094 1.048 4.574c.197.86-.748 1.535-1.519 1.085L12 16.462l-4.1 2.394z"></path></symbol><symbol id="input--favourite" preserveAspectRatio="xMinYMin meet"><path d="M11.478 14.43a1.037 1.037 0 0 1 1.044 0l2.58 1.506-.66-2.88a.995.995 0 0 1 .323-.975l2.255-1.948-2.989-.273a1.02 1.02 0 0 1-.844-.603L12 6.547l-1.187 2.71a1.02 1.02 0 0 1-.844.603l-2.989.273 2.255 1.948a.995.995 0 0 1 .323.976l-.66 2.88 2.58-1.508zm-3.577 4.426c-.771.45-1.716-.225-1.519-1.085l1.048-4.574-3.581-3.094c-.674-.582-.313-1.675.58-1.756l4.747-.433 1.885-4.306c.355-.81 1.523-.81 1.878 0l1.885 4.306 4.747.433c.893.081 1.254 1.174.58 1.756l-3.581 3.094 1.048 4.574c.197.86-.748 1.535-1.519 1.085L12 16.462l-4.1 2.394z"></path></symbol><symbol id="input--minus-circle-fill" preserveAspectRatio="xMinYMin meet"><path d="M12 20a8 8 0 1 1 0-16 8 8 0 0 1 0 16zm4-8a.5.5 0 0 0-.5-.5h-7a.5.5 0 1 0 0 1h7a.5.5 0 0 0 .5-.5z"></path></symbol><symbol id="input--minus-circle" preserveAspectRatio="xMinYMin meet"><path d="M12 19a7 7 0 1 0 0-14 7 7 0 0 0 0 14zm0 1a8 8 0 1 1 0-16 8 8 0 0 1 0 16zm4-8a.5.5 0 0 0-.5-.5h-7a.5.5 0 1 0 0 1h7a.5.5 0 0 0 .5-.5z"></path></symbol><symbol id="input--minus-sml" preserveAspectRatio="xMinYMin meet"><path d="M17 12a1 1 0 0 1-1 1H8a1 1 0 0 1 0-2h8a1 1 0 0 1 1 1z"></path></symbol><symbol id="input--minus-square-fill" preserveAspectRatio="xMinYMin meet"><path d="M6.75 5h10.5c.966 0 1.75.784 1.75 1.75v10.5A1.75 1.75 0 0 1 17.25 19H6.75A1.75 1.75 0 0 1 5 17.25V6.75C5 5.784 5.784 5 6.75 5zM16 12a.5.5 0 0 0-.5-.5h-7a.5.5 0 1 0 0 1h7a.5.5 0 0 0 .5-.5z"></path></symbol><symbol id="input--minus-square" preserveAspectRatio="xMinYMin meet"><path d="M6.857 6A.857.857 0 0 0 6 6.857v10.286c0 .473.384.857.857.857h10.286a.857.857 0 0 0 .857-.857V6.857A.857.857 0 0 0 17.143 6H6.857zM6.75 5h10.5c.966 0 1.75.784 1.75 1.75v10.5A1.75 1.75 0 0 1 17.25 19H6.75A1.75 1.75 0 0 1 5 17.25V6.75C5 5.784 5.784 5 6.75 5zM16 12a.5.5 0 0 0-.5-.5h-7a.5.5 0 1 0 0 1h7a.5.5 0 0 0 .5-.5z"></path></symbol><symbol id="input--minus" preserveAspectRatio="xMinYMin meet"><path d="M20 12a1 1 0 0 1-1 1H5a1 1 0 0 1 0-2h14a1 1 0 0 1 1 1z"></path></symbol><symbol id="input--plus-circle-fill" preserveAspectRatio="xMinYMin meet"><path d="M12 20a8 8 0 1 1 0-16 8 8 0 0 1 0 16zm.5-8.5v-3a.5.5 0 0 0-1 0v3h-3a.5.5 0 0 0 0 1h3v3a.5.5 0 0 0 1 0v-3h3a.5.5 0 0 0 0-1h-3z"></path></symbol><symbol id="input--plus-circle" preserveAspectRatio="xMinYMin meet"><path d="M12 19a7 7 0 1 0 0-14 7 7 0 0 0 0 14zm0 1a8 8 0 1 1 0-16 8 8 0 0 1 0 16zm.5-8.5v-3a.5.5 0 1 0-1 0v3h-3a.5.5 0 1 0 0 1h3v3a.5.5 0 1 0 1 0v-3h3a.5.5 0 1 0 0-1h-3z"></path></symbol><symbol id="input--plus-sml" preserveAspectRatio="xMinYMin meet"><path d="M13 11h3a1 1 0 0 1 0 2h-3v3a1 1 0 0 1-2 0v-3H8a1 1 0 0 1 0-2h3V8a1 1 0 0 1 2 0v3z"></path></symbol><symbol id="input--plus-square-fill" preserveAspectRatio="xMinYMin meet"><path d="M6.75 5h10.5c.966 0 1.75.784 1.75 1.75v10.5A1.75 1.75 0 0 1 17.25 19H6.75A1.75 1.75 0 0 1 5 17.25V6.75C5 5.784 5.784 5 6.75 5zm5.75 6.5v-3a.5.5 0 0 0-1 0v3h-3a.5.5 0 0 0 0 1h3v3a.5.5 0 0 0 1 0v-3h3a.5.5 0 0 0 0-1h-3z"></path></symbol><symbol id="input--plus-square" preserveAspectRatio="xMinYMin meet"><path d="M6.857 6A.857.857 0 0 0 6 6.857v10.286c0 .473.384.857.857.857h10.286a.857.857 0 0 0 .857-.857V6.857A.857.857 0 0 0 17.143 6H6.857zM6.75 5h10.5c.966 0 1.75.784 1.75 1.75v10.5A1.75 1.75 0 0 1 17.25 19H6.75A1.75 1.75 0 0 1 5 17.25V6.75C5 5.784 5.784 5 6.75 5zm5.75 6.5v-3a.5.5 0 0 0-1 0v3h-3a.5.5 0 0 0 0 1h3v3a.5.5 0 0 0 1 0v-3h3a.5.5 0 0 0 0-1h-3z"></path></symbol><symbol id="input--plus" preserveAspectRatio="xMinYMin meet"><path d="M13 11h6a1 1 0 0 1 0 2h-6v6a1 1 0 0 1-2 0v-6H5a1 1 0 0 1 0-2h6V5a1 1 0 0 1 2 0v6z"></path></symbol><symbol id="input--radio-fill" preserveAspectRatio="xMinYMin meet"><path d="M12 20a8 8 0 1 1 0-16 8 8 0 0 1 0 16zm0-6a2 2 0 1 0 0-4 2 2 0 0 0 0 4z"></path></symbol><symbol id="input--radio" preserveAspectRatio="xMinYMin meet"><path d="M12 20a8 8 0 1 1 0-16 8 8 0 0 1 0 16zm0-1a7 7 0 1 0 0-14 7 7 0 0 0 0 14z"></path></symbol><symbol id="input--tick-circle-fill" preserveAspectRatio="xMinYMin meet"><path d="M12 20a8 8 0 1 1 0-16 8 8 0 0 1 0 16zm3.842-10.828l-.001-.001a.49.49 0 0 0-.692-.008l-4.65 4.537-1.62-1.58a.538.538 0 0 0-.754.005l-.017.018a.505.505 0 0 0 .035.714L10.5 15l5.33-5.134.002-.001a.492.492 0 0 0 .01-.693z"></path></symbol><symbol id="input--tick-circle" preserveAspectRatio="xMinYMin meet"><path d="M12 19a7 7 0 1 0 0-14 7 7 0 0 0 0 14zm0 1a8 8 0 1 1 0-16 8 8 0 0 1 0 16zm3.842-10.828l-.001-.001a.49.49 0 0 0-.692-.008l-4.65 4.537-1.62-1.58a.538.538 0 0 0-.754.005l-.017.018a.505.505 0 0 0 .035.714L10.5 15l5.33-5.134.002-.001a.492.492 0 0 0 .01-.693z"></path></symbol><symbol id="input--tick-sml" preserveAspectRatio="xMinYMin meet"><path d="M17.364 8.222a1 1 0 0 1 0 1.414L11 16l-3.536-3.536A1 1 0 0 1 8.88 11.05L11 13.172l4.95-4.95a1 1 0 0 1 1.414 0z"></path></symbol><symbol id="input--tick-square-fill" preserveAspectRatio="xMinYMin meet"><path d="M6.75 5h10.5c.966 0 1.75.784 1.75 1.75v10.5A1.75 1.75 0 0 1 17.25 19H6.75A1.75 1.75 0 0 1 5 17.25V6.75C5 5.784 5.784 5 6.75 5zm9.092 4.172l-.001-.001a.49.49 0 0 0-.692-.008l-4.65 4.537-1.62-1.58a.538.538 0 0 0-.754.005l-.017.018a.505.505 0 0 0 .035.714L10.5 15l5.33-5.134.002-.001a.492.492 0 0 0 .01-.693z"></path></symbol><symbol id="input--tick-square" preserveAspectRatio="xMinYMin meet"><path d="M6.857 6A.857.857 0 0 0 6 6.857v10.286c0 .473.384.857.857.857h10.286a.857.857 0 0 0 .857-.857V6.857A.857.857 0 0 0 17.143 6H6.857zM6.75 5h10.5c.966 0 1.75.784 1.75 1.75v10.5A1.75 1.75 0 0 1 17.25 19H6.75A1.75 1.75 0 0 1 5 17.25V6.75C5 5.784 5.784 5 6.75 5zm9.092 4.172l-.001-.001a.49.49 0 0 0-.692-.008l-4.65 4.537-1.62-1.58a.538.538 0 0 0-.754.005l-.017.018a.505.505 0 0 0 .035.714L10.5 15l5.33-5.134.002-.001a.492.492 0 0 0 .01-.693z"></path></symbol><symbol id="input--tick" preserveAspectRatio="xMinYMin meet"><path d="M19.364 7.707L9 18.071l-4.536-4.535A1 1 0 0 1 5.88 12.12L9 15.243l8.95-8.95a1 1 0 1 1 1.414 1.414z"></path></symbol><symbol viewBox="0 0 24 24" id="loading" preserveAspectRatio="xMinYMin meet"><path d="M10.8 17.88a6 6 0 1 1 2.41 0 1 1 0 1 1-.4-2 4 4 0 1 0-1.61 0z"></path></symbol><symbol id="navigation--arrow-down-left-sml" preserveAspectRatio="xMinYMin meet"><path d="M10 12.6V9a1 1 0 0 0-2 0v7h7a1 1 0 0 0 0-2h-3.57L16 9.39A1 1 0 0 0 14.63 8L10 12.6z"></path></symbol><symbol id="navigation--arrow-down-right-sml" preserveAspectRatio="xMinYMin meet"><path d="M12.6 14H9a1 1 0 0 0 0 2h7V9a1 1 0 0 0-2 0v3.57L9.39 8A1 1 0 0 0 8 9.37L12.6 14z"></path></symbol><symbol viewBox="0 0 24 24" id="navigation--arrow-down-sml" preserveAspectRatio="xMinYMin meet"><path fill-rule="evenodd" clip-rule="evenodd" d="M15.7071 13.8787C16.0976 14.2692 16.0976 14.9024 15.7071 15.2929L12 19L8.29289 15.2929C7.90237 14.9024 7.90237 14.2692 8.29289 13.8787C8.68342 13.4882 9.31658 13.4882 9.70711 13.8787L11 15.1716L11 6C11 5.44772 11.4477 5 12 5C12.5523 5 13 5.44772 13 6L13 15.1716L14.2929 13.8787C14.6834 13.4882 15.3166 13.4882 15.7071 13.8787Z"></path></symbol><symbol id="navigation--arrow-down" preserveAspectRatio="xMinYMin meet"><path d="M13 5l-.002 11.173 3.293-3.293a1 1 0 1 1 1.414 1.414L11.998 20l-5.707-5.706a.997.997 0 0 1 0-1.414 1 1 0 0 1 1.414 0l3.293 3.293L11 5a1 1 0 0 1 2 0z"></path></symbol><symbol viewBox="0 0 24 24" id="navigation--arrow-left-sml" preserveAspectRatio="xMinYMin meet"><path fill-rule="evenodd" clip-rule="evenodd" d="M10.1213 15.7071C9.7308 16.0976 9.09763 16.0976 8.70711 15.7071L5 12L8.70711 8.29289C9.09763 7.90237 9.7308 7.90237 10.1213 8.29289C10.5118 8.68342 10.5118 9.31658 10.1213 9.70711L8.82843 11L18 11C18.5523 11 19 11.4477 19 12C19 12.5523 18.5523 13 18 13L8.82843 13L10.1213 14.2929C10.5118 14.6834 10.5118 15.3166 10.1213 15.7071Z"></path></symbol><symbol id="navigation--arrow-left" preserveAspectRatio="xMinYMin meet"><path d="M19 11H7.828l3.293-3.293a.999.999 0 1 0-1.414-1.414L4 12l5.707 5.707a.997.997 0 0 0 1.414 0 .999.999 0 0 0 0-1.414L7.828 13H19a1 1 0 0 0 0-2z"></path></symbol><symbol viewBox="0 0 24 24" id="navigation--arrow-right-sml" preserveAspectRatio="xMinYMin meet"><path fill-rule="evenodd" clip-rule="evenodd" d="M13.8787 8.29289C14.2692 7.90237 14.9024 7.90237 15.2929 8.29289L19 12L15.2929 15.7071C14.9024 16.0976 14.2692 16.0976 13.8787 15.7071C13.4882 15.3166 13.4882 14.6834 13.8787 14.2929L15.1716 13H6C5.44772 13 5 12.5523 5 12C5 11.4477 5.44772 11 6 11H15.1716L13.8787 9.70711C13.4882 9.31658 13.4882 8.68342 13.8787 8.29289Z"></path></symbol><symbol id="navigation--arrow-right" preserveAspectRatio="xMinYMin meet"><path d="M5 11h11.172l-3.293-3.293a.999.999 0 1 1 1.414-1.414L20 12l-5.707 5.707a.997.997 0 0 1-1.414 0 .999.999 0 0 1 0-1.414L16.172 13H5a1 1 0 0 1 0-2z"></path></symbol><symbol id="navigation--arrow-up-circle-fill" preserveAspectRatio="xMinYMin meet"><path d="M12 20a8 8 0 1 1 0-16 8 8 0 0 1 0 16zm.5-4.5l-.001-5.586 1.646 1.646a.5.5 0 0 0 .707-.707L11.999 8l-2.854 2.853a.495.495 0 0 0 0 .707.5.5 0 0 0 .707 0l1.646-1.646.002 5.586a.5.5 0 1 0 1 0z"></path></symbol><symbol id="navigation--arrow-up-circle" preserveAspectRatio="xMinYMin meet"><path d="M12 20a8 8 0 1 1 0-16 8 8 0 0 1 0 16zm0-1a7 7 0 1 0 0-14 7 7 0 0 0 0 14zm.5-3.5a.5.5 0 0 1-1 0l-.002-5.586-1.646 1.646a.5.5 0 0 1-.707-.707L11.999 8l2.853 2.853a.5.5 0 0 1-.707.707l-1.646-1.646.001 5.586z"></path></symbol><symbol id="navigation--arrow-up-left-sml" preserveAspectRatio="xMinYMin meet"><path d="M11.4 10H15a1 1 0 1 0 0-2H8v7a1 1 0 1 0 2 0v-3.57L14.61 16A1 1 0 0 0 16 14.63L11.4 10z"></path></symbol><symbol id="navigation--arrow-up-right-sml" preserveAspectRatio="xMinYMin meet"><path d="M14 11.4V15a1 1 0 0 0 2 0V8H9a1 1 0 0 0 0 2h3.57L8 14.61A1 1 0 0 0 9.37 16L14 11.4z"></path></symbol><symbol viewBox="0 0 24 24" id="navigation--arrow-up-sml" preserveAspectRatio="xMinYMin meet"><path fill-rule="evenodd" clip-rule="evenodd" d="M8.29289 10.1213C7.90237 9.7308 7.90237 9.09763 8.29289 8.70711L12 5L15.7071 8.70711C16.0976 9.09763 16.0976 9.7308 15.7071 10.1213C15.3166 10.5118 14.6834 10.5118 14.2929 10.1213L13 8.82843L13 18C13 18.5523 12.5523 19 12 19C11.4477 19 11 18.5523 11 18L11 8.82843L9.70711 10.1213C9.31658 10.5118 8.68342 10.5118 8.29289 10.1213Z"></path></symbol><symbol id="navigation--arrow-up" preserveAspectRatio="xMinYMin meet"><path d="M13 19a1 1 0 0 1-2 0l-.002-11.173-3.293 3.292a1 1 0 1 1-1.414-1.413L11.998 4l5.707 5.706a1 1 0 1 1-1.414 1.414l-3.293-3.293L13 19z"></path></symbol><symbol id="navigation--chevron-down-fill" preserveAspectRatio="xMinYMin meet"><path d="M12 16l-5.293-5.293A1 1 0 0 1 7.414 9h9.172a1 1 0 0 1 .707 1.707L12 16z"></path></symbol><symbol id="navigation--chevron-down-sml" preserveAspectRatio="xMinYMin meet"><path d="M8.707 9.293a1 1 0 10-1.414 1.414L12 15.414l4.707-4.707a1 1 0 10-1.414-1.414L12 12.586 8.707 9.293z" fill-rule="nonzero"></path></symbol><symbol id="navigation--chevron-down" preserveAspectRatio="xMinYMin meet"><path d="M7.707 8.883L12 13.09l4.293-4.207a.999.999 0 1 1 1.414 1.414L12 16.004l-5.707-5.707a.999.999 0 1 1 1.414-1.414z"></path></symbol><symbol id="navigation--chevron-left-fill" preserveAspectRatio="xMinYMin meet"><path d="M8 12l5.293-5.293A1 1 0 0 1 15 7.414v9.172a1 1 0 0 1-1.707.707L8 12z"></path></symbol><symbol id="navigation--chevron-left-sml" preserveAspectRatio="xMinYMin meet"><path d="M14.914 8.914A1 1 0 1013.5 7.5l-4.707 4.707 4.707 4.707a1 1 0 101.414-1.414l-3.293-3.293 3.293-3.293z" fill-rule="nonzero"></path></symbol><symbol id="navigation--chevron-left" preserveAspectRatio="xMinYMin meet"><path d="M15.121 7.707a.999.999 0 1 0-1.414-1.414L8 12l5.707 5.707a.997.997 0 0 0 1.414 0 .999.999 0 0 0 0-1.414L10.914 12l4.207-4.293z"></path></symbol><symbol id="navigation--chevron-right-fill" preserveAspectRatio="xMinYMin meet"><path d="M16 12l-5.293 5.293A1 1 0 0 1 9 16.586V7.414a1 1 0 0 1 1.707-.707L16 12z"></path></symbol><symbol id="navigation--chevron-right-sml" preserveAspectRatio="xMinYMin meet"><path d="M9.086 15.5a1 1 0 101.414 1.414l4.707-4.707L10.5 7.5a1 1 0 10-1.414 1.414l3.293 3.293L9.086 15.5z" fill-rule="nonzero"></path></symbol><symbol id="navigation--chevron-right" preserveAspectRatio="xMinYMin meet"><path d="M8.883 7.707a1 1 0 1 1 1.413-1.414L16 12l-5.704 5.707a.996.996 0 0 1-1.413 0 1 1 0 0 1 0-1.414L13.087 12 8.883 7.707z"></path></symbol><symbol id="navigation--chevron-up-fill" preserveAspectRatio="xMinYMin meet"><path d="M12 8l5.293 5.293A1 1 0 0 1 16.586 15H7.414a1 1 0 0 1-.707-1.707L12 8z"></path></symbol><symbol id="navigation--chevron-up-sml" preserveAspectRatio="xMinYMin meet"><path d="M8.707 15.121a1 1 0 11-1.414-1.414L12 9l4.707 4.707a1 1 0 11-1.414 1.414L12 11.828l-3.293 3.293z" fill-rule="nonzero"></path></symbol><symbol id="navigation--chevron-up" preserveAspectRatio="xMinYMin meet"><path d="M7.707 15.121a.999.999 0 1 1-1.414-1.414L12 8l5.707 5.707a.997.997 0 0 1 0 1.414.999.999 0 0 1-1.414 0L12 10.914l-4.293 4.207z"></path></symbol><symbol id="navigation--close-sml" preserveAspectRatio="xMinYMin meet"><path d="M13.414 12l2.122 2.121a1 1 0 0 1-1.415 1.415L12 13.414l-2.121 2.122a1 1 0 1 1-1.415-1.415L10.586 12 8.464 9.879A1 1 0 0 1 9.88 8.464L12 10.586l2.121-2.122a1 1 0 0 1 1.415 1.415L13.414 12z"></path></symbol><symbol id="navigation--close" preserveAspectRatio="xMinYMin meet"><path d="M13.364 11.95l4.243 4.243a1 1 0 0 1-1.414 1.414l-4.243-4.243-4.243 4.243a1 1 0 0 1-1.414-1.414l4.243-4.243-4.243-4.243a1 1 0 0 1 1.414-1.414l4.243 4.243 4.243-4.243a1 1 0 0 1 1.414 1.414l-4.243 4.243z"></path></symbol><symbol id="navigation--drag" preserveAspectRatio="xMinYMin meet"><path d="M8.5 5a1.5 1.5 0 0 1 0 3a1.5 1.5 0 0 1 0-3M8.5 10.5a1.5 1.5 0 0 1 0 3a1.5 1.5 0 0 1 0-3M8.5 16a1.5 1.5 0 0 1 0 3a1.5 1.5 0 0 1 0-3M14.5 5a1.5 1.5 0 0 1 0 3a1.5 1.5 0 0 1 0-3M14.5 10.5a1.5 1.5 0 0 1 0 3a1.5 1.5 0 0 1 0-3M14.5 16a1.5 1.5 0 0 1 0 3a1.5 1.5 0 0 1 0-3"></path></symbol><symbol id="navigation--dropdown" preserveAspectRatio="xMinYMin meet"><path d="M7.707 13.883L12 18.09l4.293-4.207a.999.999 0 1 1 1.414 1.414L12 21.004l-5.707-5.707a.999.999 0 1 1 1.414-1.414zm0-3.762a.999.999 0 1 1-1.414-1.414L12 3l5.707 5.707a.997.997 0 0 1 0 1.414.999.999 0 0 1-1.414 0L12 5.914l-4.293 4.207z"></path></symbol><symbol id="navigation--expand" preserveAspectRatio="xMinYMin meet"><path d="M14 3a1 1 0 1 0 0 2h3.571l-4.614 4.614a.999.999 0 1 0 1.414 1.414L19 6.399V10a1 1 0 1 0 2 0V3h-7zm-2.972 9.957a.999.999 0 0 1 0 1.414L6.399 19H10a1 1 0 1 1 0 2H3v-7a1 1 0 1 1 2 0v3.571l4.614-4.614a.999.999 0 0 1 1.414 0z"></path></symbol><symbol id="navigation--link-external-fill" preserveAspectRatio="xMinYMin meet"><path d="M14 11.4V15a1 1 0 0 0 2 0V8H9a1 1 0 1 0 0 2h3.571l-4.614 4.614a1 1 0 0 0 1.414 1.414L14 11.4zM5.143 4h13.714C19.488 4 20 4.512 20 5.143v13.714c0 .631-.512 1.143-1.143 1.143H5.143A1.143 1.143 0 0 1 4 18.857V5.143C4 4.512 4.512 4 5.143 4z"></path></symbol><symbol id="navigation--link-external" preserveAspectRatio="xMinYMin meet"><path d="M10 5a1 1 0 0 1 0 2H6v11h11v-4a1 1 0 0 1 2 0v4a2 2 0 0 1-2 2H6a2 2 0 0 1-2-2V7a2 2 0 0 1 2-2h4zm.393 10.007a.983.983 0 0 1-1.4 0 .983.983 0 0 1 0-1.4l7.6-7.6h-2.6a.999.999 0 1 1 0-2l6-.014v6.014a.999.999 0 1 1-2 0v-2.6l-7.6 7.6z"></path></symbol><symbol id="navigation--menu" preserveAspectRatio="xMinYMin meet"><path d="M20 17a1 1 0 0 1-1 1H5a1 1 0 0 1 0-2h14a1 1 0 0 1 1 1zm0-5a1 1 0 0 1-1 1H5a1 1 0 0 1 0-2h14a1 1 0 0 1 1 1zm0-5a1 1 0 0 1-1 1H5a1 1 0 1 1 0-2h14a1 1 0 0 1 1 1z"></path></symbol><symbol id="navigation--minimize" preserveAspectRatio="xMinYMin meet"><path d="M9.036 16.435l-4.629 4.63a.999.999 0 1 1-1.414-1.415l4.614-4.614h-3.57a1 1 0 0 1 0-2h7v7a1 1 0 0 1-2 0v-3.6zm6-8.828l4.614-4.614a.999.999 0 1 1 1.414 1.414l-4.629 4.63h3.601a1 1 0 1 1 0 2h-7v-7a1 1 0 1 1 2 0v3.57z"></path></symbol><symbol id="navigation--more-vertical" preserveAspectRatio="xMinYMin meet"><path d="M13 17.5a1.5 1.5 0 1 1-3 0 1.5 1.5 0 0 1 3 0zm0-11a1.5 1.5 0 1 1-3 0 1.5 1.5 0 0 1 3 0zm0 5.5a1.5 1.5 0 1 1-3 0 1.5 1.5 0 0 1 3 0z"></path></symbol><symbol id="navigation--more" preserveAspectRatio="xMinYMin meet"><path d="M6.5 13a1.5 1.5 0 1 1 0-3 1.5 1.5 0 0 1 0 3zm11 0a1.5 1.5 0 1 1 0-3 1.5 1.5 0 0 1 0 3zM12 13a1.5 1.5 0 1 1 0-3 1.5 1.5 0 0 1 0 3z"></path></symbol><symbol id="navigation--move" preserveAspectRatio="xMinYMin meet"><path d="M18.293 8.293a.999.999 0 1 0-1.414 1.414L18.124 11H13V5.876l1.293 1.245a.999.999 0 1 0 1.414-1.414L12 2 8.293 5.707a.999.999 0 1 0 1.414 1.414L11 5.876V11H5.876L7.12 9.707a.999.999 0 1 0-1.414-1.414L2 12l3.707 3.707a.999.999 0 1 0 1.414-1.414L5.876 13h5.123v5.124l-1.292-1.245a.999.999 0 1 0-1.414 1.414L12 22l3.707-3.707a.999.999 0 1 0-1.414-1.414L13 18.124V13h5.124l-1.245 1.293a.999.999 0 1 0 1.414 1.414L22 12l-3.707-3.707z"></path></symbol><symbol id="navigation--refresh-sml" preserveAspectRatio="xMinYMin meet"><path d="M15.654 13.599a1 1 0 0 1 1.832.802A5.996 5.996 0 0 1 12 18a5.97 5.97 0 0 1-4-1.546V17a1 1 0 1 1-2 0v-4h4a1 1 0 1 1 0 2h-.632c.715.632 1.645 1 2.632 1 1.58 0 3.014-.942 3.654-2.401zM17 6a1 1 0 0 1 1 1v4h-4a1 1 0 1 1 0-2h.633A3.977 3.977 0 0 0 12 8c-1.58 0-3.014.943-3.653 2.401a1 1 0 1 1-1.832-.802A5.998 5.998 0 0 1 12 6c1.506 0 2.921.572 4 1.545V7a1 1 0 0 1 1-1z" fill-rule="nonzero"></path></symbol><symbol id="navigation--refresh" preserveAspectRatio="xMinYMin meet"><path d="M7.273 16a5.99 5.99 0 0 0 5.632 1.885 6.007 6.007 0 0 0 4.766-5.018 1 1 0 0 1 .99-.867h.142a.878.878 0 0 1 .872.987 8.002 8.002 0 0 1-6.38 6.86A7.974 7.974 0 0 1 6 17.567V19a1 1 0 1 1-2 0v-5h5a1 1 0 1 1 0 2H7.273zm9.188-8a5.99 5.99 0 0 0-5.631-1.883 6.007 6.007 0 0 0-4.766 5.018.999.999 0 0 1-.991.866h-.14a.879.879 0 0 1-.872-.986 8 8 0 0 1 6.379-6.86A7.98 7.98 0 0 1 18 6.72V5a1 1 0 1 1 2 0v5h-5a1 1 0 1 1 0-2h1.46z"></path></symbol><symbol id="product-32-color--chalkmark" preserveAspectRatio="xMinYMin meet"><circle fill="#D1EBD6" cx="15" cy="15" r="8"></circle><path d="M12.74 3.86l-.4-2a13.5 13.5 0 014.3-.18l-.24 2a11.24 11.24 0 00-3.66.18zm-4 1.68A12.34 12.34 0 0111 4.37l-.72-1.86a13.88 13.88 0 00-2.67 1.37c-.37.25-.72.52-1.06.79l1.27 1.55c.29-.22.59-.46.91-.68h.01zM22.64 4a13.52 13.52 0 00-3.89-1.85l-.55 1.92a11.51 11.51 0 013.3 1.57L22.64 4zm2.47 5.74l1.78-.92a11.52 11.52 0 00-.76-1.27 13.16 13.16 0 00-1.82-2.18l-1.39 1.44a11 11 0 011.55 1.85c.236.346.45.707.64 1.08zM26.39 15v.07l2-.1a13.29 13.29 0 00-.66-4.15l-1.9.62a11.48 11.48 0 01.56 3.56zm-22.7 0A11.15 11.15 0 014 12.35l-1.95-.46A13.411 13.411 0 001.69 15c0 .39 0 .79.05 1.19l2-.18c-.03-.35-.05-.68-.05-1.01zm6.81 12.53a13.31 13.31 0 004.23.79v-2a11.35 11.35 0 01-3.6-.67l-.63 1.88zm-3.86-4.92L5.16 24a13.33 13.33 0 003.38 2.68l1-1.75a11.32 11.32 0 01-2.9-2.32zM6.5 7.5L5 6.18a13.32 13.32 0 00-2.28 3.65l1.85.77A11.2 11.2 0 016.5 7.5zM4.05 17.81l-1.94.5a13.1 13.1 0 001.74 3.94l1.67-1.09a11.25 11.25 0 01-1.47-3.35zm26.66 9.9l-3 3a1 1 0 01-1.42 0L22 26.41l-2.29 2.3a1 1 0 01-1.65-.37l-1.25-3.51A9.83 9.83 0 0115 25C9.477 25 5 20.523 5 15S9.477 5 15 5s10 4.477 10 10a9.83 9.83 0 01-.17 1.81l3.51 1.25a1 1 0 01.37 1.65L26.41 22l4.3 4.29a1 1 0 010 1.42zm-14.59-4.8L15.43 21H15a6 6 0 116-6v.43l1.93.69c.049-.371.072-.746.07-1.12a8 8 0 10-8 8 8.32 8.32 0 001.12-.09zm-2.83-9.62a1 1 0 011.05-.23L19 14.71A4 4 0 1014.71 19l-1.65-4.63a1 1 0 01.23-1.08z" fill="#40403F"></path><path d="M26.18 19.41l-10.53-3.76 3.76 10.53 1.88-1.89a1 1 0 011.42 0l4.29 4.3L28.59 27l-4.3-4.29a1 1 0 010-1.42l1.89-1.88z" fill="#FFF"></path></symbol><symbol id="product-32-color--folder" preserveAspectRatio="xMinYMin meet"><path d="M27 20v2.999A2.001 2.001 0 0124.999 25H7.001A2.001 2.001 0 015 22.999V20h22zM24.998 9C26.103 9 27 9.896 27 11.002V13h-8.999c-.63 0-1.224-.296-1.602-.8L14.308 9z" fill="#FFE98F"></path><path d="M11.932 6c1.004 0 1.936.499 2.492 1.334l.444.666h10.136A3 3 0 0128 10.997v12.007A2.999 2.999 0 0125.004 26H6.997A2.999 2.999 0 014 23.004V9.003A3.006 3.006 0 017.002 6zm0 2h-4.93C6.45 8 6 8.45 6 9.003v14c0 .55.447.997.997.997h18.007a.997.997 0 00.996-.996v-8.001C26 14.45 25.551 14 24.998 14H18.07a2.995 2.995 0 01-2.496-1.335L12.76 8.444A.992.992 0 0011.932 8zm13.072 2h-8.802l1.036 1.555a.998.998 0 00.832.445h6.928c.354 0 .688.073 1.002.185v-1.188a.998.998 0 00-.996-.997z" fill="#40403E"></path></symbol><symbol id="product-32-color--optimalsort" preserveAspectRatio="xMinYMin meet"><path d="M27 3h-9a1 1 0 00-1 1v5a1 1 0 001 1h9a1 1 0 001-1V4a1 1 0 00-1-1zM14 5H5a1 1 0 00-1 1v10a1 1 0 001 1h9a1 1 0 001-1V6a1 1 0 00-1-1zm0 14H5a1 1 0 00-1 1v5a1 1 0 001 1h9a1 1 0 001-1v-5a1 1 0 00-1-1zm13-7h-9a1 1 0 00-1 1v15a1 1 0 001 1h9a1 1 0 001-1V13a1 1 0 00-1-1z" fill="#40403F"></path><path d="M13 10H6V7h7v3zm-7 5h7v-3H6v3zm20-1h-7v3h7v-3zm-7 8h7v-3h-7v3zm0 5h7v-3h-7v3z" fill="#FFEA8F"></path><path d="M26 8h-7V5h7v3zM13 21H6v3h7v-3z" fill="#FFF"></path></symbol><symbol id="product-32-color--questions" preserveAspectRatio="xMinYMin meet"><path d="M27 11H13a1 1 0 01-1-1V6a1 1 0 011-1h14a1 1 0 011 1v4a1 1 0 01-1 1zm0 8H13a1 1 0 01-1-1v-4a1 1 0 011-1h14a1 1 0 011 1v4a1 1 0 01-1 1zm0 8H13a1 1 0 01-1-1v-4a1 1 0 011-1h14a1 1 0 011 1v4a1 1 0 01-1 1zM9 27H5a1 1 0 01-1-1v-4a1 1 0 011-1h4a1 1 0 011 1v4a1 1 0 01-1 1zM7 11a3 3 0 110-6 3 3 0 010 6zm3.25 3.16a1 1 0 00-1.5-1.32l-2.91 3.32-.76-.54a1 1 0 00-1.16 1.63l2.24 1.59 4.09-4.68z" fill="#40403F"></path><path fill="#F5CC94" d="M14 15h12v2H14z"></path><path d="M14 9h12V7H14v2zm0 16h12v-2H14v2zm-8 0h2v-2H6v2zM7 7a1 1 0 100 2 1 1 0 000-2z" fill="#FFF"></path></symbol><symbol id="product-32-color--reframer" preserveAspectRatio="xMinYMin meet"><path d="M19 16v-4a2 2 0 00-2-2h-4V7h14v9h-2a1 1 0 00-1 1v3.24l-3.23-3.88A1 1 0 0020 16h-1zm-8.77 5.36A1 1 0 0111 21h6v-3h-4a2 2 0 01-2-2v-4H4v9h2a1 1 0 011 1v3.24l3.23-3.88z" fill="#FFF"></path><path d="M27 5H13a2 2 0 00-2 2v3H4a2 2 0 00-2 2v9a2 2 0 002 2h1v5a1 1 0 001.77.64l4.7-5.64H17a2 2 0 002-2v-3h.53l4.7 5.64A1 1 0 0026 23v-5h1a2 2 0 002-2V7a2 2 0 00-2-2zM17 21h-6a1 1 0 00-.77.36L7 25.24V22a1 1 0 00-1-1H4v-9h7v4a2 2 0 002 2h4v3zm0-5h-4v-4h4v4zm10 0h-2a1 1 0 00-1 1v3.24l-3.23-3.88A1 1 0 0020 16h-1v-4a2 2 0 00-2-2h-4V7h14v9z" fill="#40403F"></path><path fill="#F5ABAB" d="M13 12h4v4h-4z"></path></symbol><symbol id="product-32-color--treejack" preserveAspectRatio="xMinYMin meet"><path d="M30 14a4 4 0 00-7.86-1h-2.28A4 4 0 0017 10.14V8.86a4 4 0 10-2 0v1.28A4 4 0 0012.14 13H9.86A4 4 0 105 17.86v2.28a4 4 0 102 0v-2.28A4 4 0 009.86 15h2.28A4 4 0 0015 17.86v2.28a4 4 0 102 0v-2.28A4 4 0 0019.86 15h2.28A4 4 0 0025 17.86V20a1 1 0 002 0v-2.14A4 4 0 0030 14z" fill="#40403F"></path><path d="M6 22a2 2 0 100 4 2 2 0 000-4zm10 0a2 2 0 100 4 2 2 0 000-4zM6 12a2 2 0 100 4 2 2 0 000-4z" fill="#FFF"></path><path d="M26 12a2 2 0 100 4 2 2 0 000-4zm-10 0a2 2 0 100 4 2 2 0 000-4zm0-9a2 2 0 100 4 2 2 0 000-4z" fill="#B2DEE3"></path><path d="M25.07 28.48l-2.78-2.77a1.004 1.004 0 111.42-1.42l1.22 1.23 4.3-5.16a1.001 1.001 0 111.54 1.28l-5.7 6.84zM16 4a1 1 0 100 2 1 1 0 000-2zm1 10a1 1 0 11-2 0 1 1 0 012 0zm10 0a1 1 0 11-2 0 1 1 0 012 0z" fill="#40403F"></path></symbol><symbol id="product--chalkmark" preserveAspectRatio="xMinYMin meet"><path d="M14.41 6a6.27 6.27 0 0 0-3-1.82l.35-1.93h.28a7.91 7.91 0 0 1 3.89 2.43L14.41 6zM9.85 4V2a8 8 0 0 0-4.34 1.33L6.62 5a5.92 5.92 0 0 1 3.23-1zm-7.82 7.25a7.94 7.94 0 0 0 1.9 4.07L5.45 14A6 6 0 0 1 4 10.94l-1.97.31zm2.12-2.87a6.18 6.18 0 0 1 1.19-2.25L3.81 4.84A8 8 0 0 0 2 9l2 .27c.028-.3.078-.597.15-.89zm11.78 1.33l2 .6V10a8 8 0 0 0-.77-3.42l-1.81.86a6 6 0 0 1 .58 2.27zm6.72 11l-2 2a1 1 0 0 1-1.42 0l-3.79-3.8-1.79 1.8a1 1 0 0 1-.72.29 1 1 0 0 1-.24 0 1 1 0 0 1-.72-.68l-3-10a1 1 0 0 1 .25-1A1 1 0 0 1 9.93 9a1 1 0 0 1 .29 0l10 3a1 1 0 0 1 .68.72 1 1 0 0 1-.26 1l-1.8 1.79 3.8 3.79a1 1 0 0 1 0 1.41h.01zM20.52 20l-3.8-3.79a1 1 0 0 1 0-1.42l1.32-1.31-6.62-2 2 6.62 1.31-1.32a1 1 0 0 1 1.42 0l3.78 3.81.59-.59zM9.73 7a3 3 0 0 1 2.91 1.71l2.23.67A5 5 0 1 0 9.33 15l-.68-2.3A3 3 0 0 1 9.73 7zm-1.42 8.78a6.23 6.23 0 0 1-1.56-.69l-1.05 1.7a7.81 7.81 0 0 0 2.07.91 8 8 0 0 0 2.16.3h.31l-.6-2a6 6 0 0 1-1.33-.22z" fill-rule="nonzero"></path></symbol><symbol id="product--optimalsort" preserveAspectRatio="xMinYMin meet"><path d="M10 1H3a1 1 0 0 0-1 1v12a1 1 0 0 0 .3.71A1 1 0 0 0 3 15h7a1 1 0 0 0 1-1V2a1 1 0 0 0-1-1zM9 13H4v-2h5v2zm0-4H4V7h5v2zm0-4H4V3h5v2zm1 12H3a1 1 0 0 0-1 1v4a1 1 0 0 0 1 1h7a1 1 0 0 0 1-1v-4a1 1 0 0 0-1-1zm-1 4H4v-2h5v2zm12-8h-7a1 1 0 0 0-1 1v8a1 1 0 0 0 1 1h7a1 1 0 0 0 1-1v-8a1 1 0 0 0-1-1zm-1 8h-5v-2h5v2zm0-4h-5v-2h5v2zm1-16h-7a1 1 0 0 0-1 1v8a1 1 0 0 0 1 1h7a1 1 0 0 0 1-1V2a1 1 0 0 0-1-1zm-1 8h-5V7h5v2zm0-4h-5V3h5v2z" fill-rule="nonzero"></path></symbol><symbol id="product--questions" preserveAspectRatio="xMinYMin meet"><path d="M22 8H10a1 1 0 0 1-1-1V3a1 1 0 0 1 1-1h12a1 1 0 0 1 1 1v4a1 1 0 0 1-1 1zM11 6h10V4H11v2zm11 9H10a1 1 0 0 1-1-1v-4a1 1 0 0 1 1-1h12a1 1 0 0 1 1 1v4a1 1 0 0 1-1 1zm-11-2h10v-2H11v2zm11 9H10a1 1 0 0 1-1-1v-4a1 1 0 0 1 1-1h12a1 1 0 0 1 1 1v4a1 1 0 0 1-1 1zm-11-2h10v-2H11v2zm-5 2H2a1 1 0 0 1-1-1v-4a1 1 0 0 1 1-1h4a1 1 0 0 1 1 1v4a1 1 0 0 1-1 1zm-3-2h2v-2H3v2zM4 8a3 3 0 1 1 0-6 3 3 0 0 1 0 6zm0-4a1 1 0 1 0 0 2 1 1 0 0 0 0-2zm2.77 6.64a1.001 1.001 0 1 0-1.54-1.28l-1.9 2.29-.75-.53a1 1 0 0 0-1.16 1.63l2.25 1.6 3.1-3.71z" fill-rule="nonzero"></path></symbol><symbol id="product--reframer" preserveAspectRatio="xMinYMin meet"><path d="M21.8 3H10.2A2.19 2.19 0 0 0 8 5.2V8H2.2A2.19 2.19 0 0 0 0 10.2v6.6A2.19 2.19 0 0 0 2.2 19H3v3.62a.49.49 0 0 0 .85.35l2.56-2.56L7.83 19h5A2.19 2.19 0 0 0 15 16.8V15h1.17l1.42 1.41L20.15 19a.49.49 0 0 0 .85-.35V15h.8a2.19 2.19 0 0 0 2.2-2.2V5.2A2.21 2.21 0 0 0 21.8 3zM13 16.8a.2.2 0 0 1-.2.2H7l-2 2v-2H2.2a.2.2 0 0 1-.2-.2v-6.6c0-.11.09-.2.2-.2H8v2.8a2.19 2.19 0 0 0 2.2 2.2H13v1.8zm0-3.8h-2.8a.2.2 0 0 1-.2-.2V10h2.8c.11 0 .2.09.2.2V13zm9-.2a.2.2 0 0 1-.2.2H19v2l-2-2h-2v-2.8A2.21 2.21 0 0 0 12.8 8H10V5.2c0-.11.09-.2.2-.2h11.6c.11 0 .2.09.2.2v7.6z" fill-rule="nonzero"></path></symbol><symbol id="product--treejack" preserveAspectRatio="xMinYMin meet"><path d="M23 12a3 3 0 0 0-5.82-1h-2.36A3 3 0 0 0 13 9.18V6.82a3 3 0 1 0-2 0v2.36A3 3 0 0 0 9.18 11H6.82A3 3 0 1 0 3 14.82v2.36a3 3 0 1 0 2 0v-2.36A3 3 0 0 0 6.82 13h2.36A3 3 0 0 0 11 14.82v2.36a3 3 0 1 0 2 0v-2.36A3 3 0 0 0 14.82 13h2.36A3 3 0 0 0 19 14.82V17h2v-2.18A3 3 0 0 0 23 12zM12 3a1 1 0 1 1 0 2 1 1 0 0 1 0-2zM4 21a1 1 0 1 1 0-2 1 1 0 0 1 0 2zm0-8a1 1 0 1 1 0-2 1 1 0 0 1 0 2zm8 8a1 1 0 1 1 0-2 1 1 0 0 1 0 2zm0-8a1 1 0 1 1 0-2 1 1 0 0 1 0 2zm8 0a1 1 0 1 1 0-2 1 1 0 0 1 0 2zm-.19 10l-2.22-1.58a1 1 0 1 1 1.16-1.63l.78.56 2.73-3a1.005 1.005 0 0 1 1.48 1.36L19.81 23z" fill-rule="nonzero"></path></symbol><symbol id="questions--check" preserveAspectRatio="xMinYMin meet"><rect x=".5" y=".5" width="119" height="119" rx="3.5" fill="#f4f5f7" stroke="#8c9ba6"></rect><g fill="#c6cdd3"><path d="M16 16h88v8H16zM16 28h64v8H16z"></path></g><rect x="20" y="44" width="12" height="12" rx="1" fill="#096ee1"></rect><path d="M25.27 53.36l-2.89-2.89a.5.5 0 011.16-1.16l1.73 1.74L29.32 47a.5.5 0 011.16 1.16z" fill="#fff"></path><rect x="20.5" y="60.5" width="11" height="11" rx="1" fill="#fff" stroke="#8c9ba6"></rect><rect x="20.5" y="76.5" width="11" height="11" rx="1" fill="#fff" stroke="#8c9ba6"></rect><path fill="#c6cdd3" d="M36 46h52v8H36zM36 62h56v8H36zM36 78h44v8H36z"></path></symbol><symbol id="questions--likert" preserveAspectRatio="xMinYMin meet"><rect x=".5" y=".5" width="119" height="119" rx="3.5" fill="#f4f5f7" stroke="#8c9ba6"></rect><g fill="#c6cdd3"><path d="M16 16h88v8H16zM16 28h64v8H16zM22 60h12v6H22zM38 60h12v6H38zM54 60h12v6H54zM70 60h12v6H70zM86 60h12v6H86z"></path></g><circle cx="28" cy="50" r="6" fill="#096ee1"></circle><circle cx="28" cy="50" r="3" fill="#fff"></circle><g fill="#fff" stroke="#8c9ba6"><circle cx="44" cy="50" r="5.5"></circle><circle cx="60" cy="50" r="5.5"></circle><circle cx="76" cy="50" r="5.5"></circle><circle cx="92" cy="50" r="5.5"></circle></g></symbol><symbol id="questions--matrix" preserveAspectRatio="xMinYMin meet"><rect x=".5" y=".5" width="119" height="119" rx="3.5" fill="#f4f5f7" stroke="#8c9ba6"></rect><g fill="#c6cdd3"><path d="M16 16h88v8H16zM16 28h64v8H16zM16 57h28v6H16zM16 73h32v6H16zM16 89h24v6H16zM60 44h12v6H60zM76 44h12v6H76zM92 44h12v6H92z"></path></g><circle cx="66" cy="60" r="6" fill="#096ee1"></circle><circle cx="66" cy="60" r="3" fill="#fff"></circle><circle cx="98" cy="76" r="6" fill="#096ee1"></circle><circle cx="98" cy="76" r="3" fill="#fff"></circle><circle cx="82" cy="92" r="6" fill="#096ee1"></circle><circle cx="82" cy="92" r="3" fill="#fff"></circle><g fill="#fff" stroke="#8c9ba6"><circle cx="82" cy="60" r="5.5"></circle><circle cx="98" cy="60" r="5.5"></circle><circle cx="66" cy="76" r="5.5"></circle><circle cx="82" cy="76" r="5.5"></circle><circle cx="66" cy="92" r="5.5"></circle><circle cx="98" cy="92" r="5.5"></circle></g></symbol><symbol id="questions--nps" preserveAspectRatio="xMinYMin meet"><rect x=".5" y=".5" width="119" height="119" rx="3.5" fill="#f4f5f7" stroke="#8c9ba6"></rect><g fill="#c6cdd3"><path d="M16 16h88v8H16zM16 28h64v8H16zM16 43h8v6h-8zM97 43h8v6h-8z"></path></g><circle cx="83" cy="60" r="4" fill="#096ee1"></circle><circle cx="83" cy="60" r="2" fill="#096ee1"></circle><g fill="#fff" stroke="#8c9ba6"><circle cx="20" cy="60" r="3.5"></circle><circle cx="29" cy="60" r="3.5"></circle><circle cx="38" cy="60" r="3.5"></circle><circle cx="47" cy="60" r="3.5"></circle><circle cx="56" cy="60" r="3.5"></circle><circle cx="65" cy="60" r="3.5"></circle><circle cx="74" cy="60" r="3.5"></circle><circle cx="92" cy="60" r="3.5"></circle><circle cx="101" cy="60" r="3.5"></circle></g><path fill="#8c9ba6" d="M92.78 45.33l-2.19-2.19a1 1 0 01.94-.94l3.8 3.8-3.8 3.8a1 1 0 01-.94-.94l2.19-2.19H28.22l2.19 2.19a1 1 0 01-.94.94l-3.8-3.8 3.8-3.8a1 1 0 01.94.94l-2.19 2.19z"></path></symbol><symbol id="questions--radio" preserveAspectRatio="xMinYMin meet"><rect x=".5" y=".5" width="119" height="119" rx="3.5" fill="#f4f5f7" stroke="#8c9ba6"></rect><g fill="#c6cdd3"><path d="M16 16h88v8H16zM16 28h64v8H16zM36 46h52v8H36zM36 62h56v8H36zM36 78h44v8H36z"></path></g><circle cx="26" cy="50" r="6" fill="#096ee1"></circle><circle cx="26" cy="50" r="3" fill="#fff"></circle><circle cx="26" cy="66" r="5.5" fill="#fff" stroke="#8c9ba6"></circle><circle cx="26" cy="82" r="5.5" fill="#fff" stroke="#8c9ba6"></circle></symbol><symbol id="questions--ranking" preserveAspectRatio="xMinYMin meet"><g stroke="#8C9BA6" fill="#fff"><rect fill="#F4F5F7" x=".5" y=".5" width="119" height="119" rx="4"></rect><rect x="32.5" y="44.5" width="71" height="11" rx="2"></rect><rect x="20.5" y="60.5" width="71" height="11" rx="2"></rect><rect x="32.5" y="76.5" width="71" height="11" rx="2"></rect><rect x="32.5" y="92.5" width="71" height="11" rx="2"></rect></g><path fill="#C6CDD3" d="M16 16h88v8H16zM16 28h64v8H16z"></path><path d="M26.5 57.5a.5.5 0 01-1 0l-.001-5.586-1.647 1.646a.5.5 0 11-.707-.707L26 50l2.853 2.853a.5.5 0 11-.707.707L26.5 51.914 26.5 57.5zM26.5 74.5l-.001 5.586 1.646-1.646a.5.5 0 11.707.707L26 82l-2.854-2.853a.498.498 0 010-.707.5.5 0 01.707 0l1.647 1.646.001-5.586a.5.5 0 011 0z" fill="#5A6773"></path><path fill="#8C9BA6" d="M39.255 53v-6.003h-1.116l-1.89 1.899.729.765.999-1.017V53zM28.241 69v-1.125h-2.448c1.557-1.134 2.403-2.025 2.403-3.051 0-1.197-1.017-1.917-2.295-1.917-.837 0-1.728.306-2.313.981l.729.846a2.146 2.146 0 011.611-.693c.495 0 .972.261.972.783 0 .738-.72 1.359-3.177 3.177V69h4.518zM37.906 85.108c1.44 0 2.367-.729 2.367-1.764 0-.9-.793-1.377-1.405-1.44.666-.117 1.314-.612 1.314-1.368 0-.999-.864-1.629-2.268-1.629-1.053 0-1.809.405-2.294.954l.639.801a2.16 2.16 0 011.52-.621c.63 0 1.116.234 1.116.711 0 .441-.44.639-1.107.639h-.354c-.17-.002-.33-.004-.392-.009v1.152c.09-.009.494-.018.746-.018.838 0 1.207.216 1.207.693 0 .45-.405.765-1.134.765-.585 0-1.242-.252-1.656-.684l-.666.855c.44.54 1.26.963 2.367.963zM39.688 101v-1.242h.773v-1.125h-.773v-3.636h-1.765l-2.385 3.753v1.008h2.872V101h1.278zm-1.279-2.367h-1.62l1.62-2.502v2.502z"></path></symbol><symbol id="questions--select" preserveAspectRatio="xMinYMin meet"><rect x=".5" y=".5" width="119" height="119" rx="3.5" fill="#f4f5f7" stroke="#8c9ba6"></rect><g fill="#c6cdd3"><path d="M16 16h88v8H16zM16 28h64v8H16z"></path></g><rect x="16.5" y="44.5" width="87" height="15" rx="1.5" fill="#fff" stroke="#8c9ba6"></rect><path fill="#8c9ba6" d="M96 54.667l-3.8-3.807a.5.5 0 01.94-.94L96 52.73l2.86-2.81a.5.5 0 01.94.94z"></path><rect x="16.5" y="62.5" width="87" height="39" rx="1.5" fill="#fff" stroke="#8c9ba6"></rect><path fill="none" stroke="#c6cdd3" d="M17 75.5h86m-86 13h86"></path></symbol><symbol id="questions--text" preserveAspectRatio="xMinYMin meet"><rect x=".5" y=".5" width="119" height="119" rx="3.5" fill="#f4f5f7" stroke="#8c9ba6"></rect><g fill="#c6cdd3"><path d="M16 16h88v8H16zM16 28h64v8H16z"></path></g><rect x="16.5" y="44.5" width="87" height="15" rx="1.5" fill="#fff" stroke="#8c9ba6"></rect><path fill="#8c9ba6" d="M19 47h2a1 1 0 011 1v8a1 1 0 01-1 1h-2v-1h5v1h-2a1 1 0 01-1-1v-8a1 1 0 011-1h2v1h-5z"></path></symbol><symbol id="questions--textarea" preserveAspectRatio="xMinYMin meet"><rect x=".5" y=".5" width="119" height="119" rx="3.5" fill="#f4f5f7" stroke="#8c9ba6"></rect><g fill="#c6cdd3"><path d="M16 16h88v8H16zM16 28h64v8H16z"></path></g><rect x="16.5" y="44.5" width="87" height="59" rx="1.5" fill="#fff" stroke="#8c9ba6"></rect><path fill="#8c9ba6" d="M19 47h2a1 1 0 011 1v8a1 1 0 01-1 1h-2v-1h5v1h-2a1 1 0 01-1-1v-8a1 1 0 011-1h2v1h-5z"></path></symbol><symbol id="social--facebook" preserveAspectRatio="xMinYMin meet"><path d="M13.067 21v-8.21h2.755l.413-3.2h-3.168V7.545c0-.926.257-1.557 1.586-1.557l1.694-.001V3.125A22.966 22.966 0 0 0 13.879 3c-2.443 0-4.116 1.491-4.116 4.23v2.36H7v3.2h2.763V21h3.304z"></path></symbol><symbol id="social--like" preserveAspectRatio="xMinYMin meet"><path d="M5 10h3l1-3V5a2 2 0 0 1 2-2h2a1 1 0 0 1 1 1v5h4a2 2 0 0 1 2 2v1a1 1 0 0 1 1 1v1a1 1 0 0 1-1 1v1a1 1 0 0 1-1 1v1a2 2 0 0 1-2 2h-5.172a2 2 0 0 1-1.414-.586L9 18H5a1 1 0 0 1 0-2h3.757a3 3 0 0 1 2.122.879L12 18h2v-1a1 1 0 0 1-1-1v-5h-1V5h-1v2l-1.072 3.575A2 2 0 0 1 8.012 12H5a1 1 0 0 1 0-2zm9.5 1a.5.5 0 1 0 0 1H18v-1h-3.5zm0 2a.5.5 0 1 0 0 1H19v-1h-4.5zm0 2a.5.5 0 1 0 0 1H18v-1h-3.5zm1 2a.5.5 0 1 0 0 1H17v-1h-1.5z"></path></symbol><symbol id="social--linkedin" preserveAspectRatio="xMinYMin meet"><path d="M5.154 3.25a2.154 2.154 0 1 1-.003 4.307 2.154 2.154 0 0 1 .003-4.307zm-1.86 17.888V9.189h3.718v11.949H3.295zM9.342 9.189h3.56v1.634h.05c.496-.94 1.708-1.93 3.514-1.93 3.76 0 4.455 2.474 4.455 5.692v6.553h-3.713v-5.81c0-1.386-.024-3.169-1.93-3.169-1.932 0-2.227 1.51-2.227 3.069v5.91h-3.71V9.189z"></path></symbol><symbol id="social--share" preserveAspectRatio="xMinYMin meet"><path d="M9.133 14.11a3 3 0 1 1 .02-4.198l3.918-2.262a3 3 0 1 1 1.06 1.697L10 11.732l-.014-.024a3.036 3.036 0 0 1-.004.623L10 12.3l4.108 2.372a3 3 0 1 1-1.044 1.707l-3.93-2.27zM7 11a1 1 0 1 0 0 2 1 1 0 0 0 0-2zm9 5a1 1 0 1 0 0 2 1 1 0 0 0 0-2zm0-10a1 1 0 1 0 0 2 1 1 0 0 0 0-2z"></path></symbol><symbol id="social--twitter" preserveAspectRatio="xMinYMin meet"><path d="M20.92 6.724c-.66.292-1.368.49-2.112.579a3.689 3.689 0 0 0 1.617-2.034 7.36 7.36 0 0 1-2.335.892 3.676 3.676 0 0 0-6.265 3.353 10.436 10.436 0 0 1-7.577-3.841 3.675 3.675 0 0 0 1.138 4.908 3.658 3.658 0 0 1-1.666-.46v.047a3.679 3.679 0 0 0 2.949 3.605 3.683 3.683 0 0 1-1.66.063 3.68 3.68 0 0 0 3.434 2.553A7.376 7.376 0 0 1 3 17.91a10.405 10.405 0 0 0 5.636 1.652c6.762 0 10.46-5.602 10.46-10.46 0-.16-.004-.318-.01-.476a7.468 7.468 0 0 0 1.834-1.903"></path></symbol><symbol id="user--user-add" preserveAspectRatio="xMinYMin meet"><path d="M8.86 9.48a4 4 0 1 1 6.278 0A5 5 0 0 1 18.001 14h-2a3 3 0 0 0-3-3h-2a3 3 0 0 0-3 3v5a1 1 0 0 1-2 0v-5a5 5 0 0 1 2.86-4.52zM18 18h2a1 1 0 0 1 0 2h-2v2a1 1 0 0 1-2 0v-2h-2a1 1 0 0 1 0-2h2v-2a1 1 0 0 1 2 0v2zm-6-9a2 2 0 1 0 0-4 2 2 0 0 0 0 4z"></path></symbol><symbol id="user--user-blocked" preserveAspectRatio="xMinYMin meet"><path d="M8.86 9.48a4 4 0 1 1 6.278 0A5 5 0 0 1 18.001 14v1l-1 1-1-1v-1a3 3 0 0 0-3-3h-2a3 3 0 0 0-3 3v5a1 1 0 0 1-2 0v-5a5 5 0 0 1 2.86-4.52zM18.415 19l1.414 1.414a1 1 0 1 1-1.414 1.414L17 20.414l-1.414 1.414a1 1 0 1 1-1.414-1.414L15.586 19l-1.414-1.414a1 1 0 1 1 1.414-1.414L17 17.586l1.414-1.414a1 1 0 1 1 1.414 1.414L18.414 19zM12 9a2 2 0 1 0 0-4 2 2 0 0 0 0 4z"></path></symbol><symbol id="user--user-remove" preserveAspectRatio="xMinYMin meet"><path d="M8.86 9.48a4 4 0 1 1 6.278 0A5 5 0 0 1 18.001 14v3h-2v-3a3 3 0 0 0-3-3h-2a3 3 0 0 0-3 3v5a1 1 0 0 1-2 0v-5a5 5 0 0 1 2.86-4.52zM14 18h6a1 1 0 0 1 0 2h-6a1 1 0 0 1 0-2zm-2-9a2 2 0 1 0 0-4 2 2 0 0 0 0 4z"></path></symbol><symbol id="user--user" preserveAspectRatio="xMinYMin meet"><path d="M8.86 9.48a4 4 0 1 1 6.278 0A5 5 0 0 1 18.001 14v5a1 1 0 0 1-2 0v-5a3 3 0 0 0-3-3h-2a3 3 0 0 0-3 3v5a1 1 0 0 1-2 0v-5a5 5 0 0 1 2.86-4.52zM12 9a2 2 0 1 0 0-4 2 2 0 0 0 0 4z"></path></symbol><symbol id="user--users" preserveAspectRatio="xMinYMin meet"><path d="M8 10H7a3 3 0 0 0-3 3v3a1 1 0 0 1-2 0v-3c0-1.724.873-3.244 2.2-4.143a4 4 0 1 1 6.798-2.73 4.007 4.007 0 0 1 2.004 0 4 4 0 1 1 6.798 2.73A4.995 4.995 0 0 1 22 13v3a1 1 0 0 1-2 0v-3a3 3 0 0 0-3-3h-1c0 .936-.322 1.798-.86 2.48A5 5 0 0 1 18 17v4a1 1 0 0 1-2 0v-4a3 3 0 0 0-3-3h-2a3 3 0 0 0-3 3v4a1 1 0 0 1-2 0v-4a5 5 0 0 1 2.86-4.52A3.983 3.983 0 0 1 8 10zM7 8a2 2 0 1 0 0-4 2 2 0 0 0 0 4zm10 0a2 2 0 1 0 0-4 2 2 0 0 0 0 4zm-5 4a2 2 0 1 0 0-4 2 2 0 0 0 0 4z"></path></symbol></svg>
